<?xml version="1.0" encoding="UTF-8"?>
<svg id="Layer_1" data-name="Layer 1" xmlns="http://www.w3.org/2000/svg" viewBox="0 0 2740.74 547.75">
  <defs>
    <style>
      .cls-1 {
        fill: #fff;
      }

      .cls-2 {
        fill: #e6252d;
      }

      .cls-3 {
        fill: #e02129;
      }
    </style>
  </defs>
  <g id="Layer_1-2" data-name="Layer 1-2">
    <path class="cls-1" d="M55.24,447.61l65.8-68.2c2.2-.9,22.7,12,28.2,14.1,139.4,53.3,243.2-129.9,129.1-221.5-100.8-80.9-244,19.5-203.1,143.6,3.9,12,10.8,21.7,15.4,33.2l-47.1,47C-38.76,294.91.64,142.31,119.54,91.31c115-49.3,248.1,20.7,271.7,143.2,29.4,152.7-116.5,274.9-262.7,223.6-15.9-5.6-17-10.6-34.9-10.6h-38.4v.1Z"/>
    <path class="cls-1" d="M681.34,173.41c-38.9-24.4-87.7-50.3-134.9-34-38.3,13.2-45.9,58.4-10,79.8,65.5,39.1,191.2,21.2,191.7,135.2.6,135.8-175.5,133.3-262.6,79.7-6-3.7-28.6-18.6-31.6-23.3-1.3-2-2.2-3.3-.7-5.5l37.9-43.6c24.1,16.3,45.1,33.3,73.8,41.6,37.6,10.8,114.4,13.4,116.1-41.3,1.5-49.7-78.8-56.3-114.2-67.1-50.6-15.4-95.6-36.1-100.2-95.5-10.8-138.8,170.1-150.1,256.6-85.9,4.6,3.4,13.5,7.6,10.3,14.6l-32.3,45.3h.1Z"/>
    <polygon class="cls-1" points="814.64 81.21 930.54 374.01 1043.24 81.21 1116.84 81.21 956.44 466.51 897.84 466.21 741.04 81.21 814.64 81.21"/>
    <path class="cls-3" d="M183.34,181.81c128.8-15,141.2,170.8,26,182.6-126.4,12.9-137.9-169.5-26-182.6h0ZM202.24,236.01c-7.4,5.6-10.8-5.4-13-7.7-9.6-10.3-19.4-.8-14,1.7s9.5-.3,10.1,5.6-9,9.9-7.9,16.4c13.2-5.9,25.9-6.4,39.1,0,3.2-7.1-7.9-12.1-7.8-14.8.1-9.4,11.6-6.2,12.6-7.2,4.3-4.3-8.9-11.7-17.1-.6-1.3,1.8-1.4,6.3-1.9,6.6h-.1ZM194.64,250.31c-10.1-1.5-19.3,10-25,11.8s-23.2,1.5-14.9,16.3c3.9.8,5.1-13.1,13.3-9.4,1.9,13.1-2.8,8.7-9,12.2-10,5.7-8.1,20.2-1.3,12.8,2.7-3,1.5-9.6,10.3-7.7,1.3,15.9-.8,8.4-7.9,11.7-11.5,5.3-9,20.2-1.7,14.8s0-10.8,8.6-9.3c1,.2,5.8,10.8,12.4,14.5,13.7,7.9,35,5.5,44.8-7.6s1.6-6.5,1.8-6.7c4-3.1,11.3,4.6,11,9.2l5.5-1.5c2.2-3.1-1.6-8.2-3.9-10.3-7.6-6.8-13.5.9-11-14.8,9-2.6,8.4,8.7,9.4,9.4,6,4.2,8.4-7.8,1.5-13.2-7.4-5.8-13.2,3.6-10.9-13.4,7.4-1.3,8.3,3.2,9.4,9.4,8.3,1.4,6.9-7.2,3.1-11.8-4.5-5.5-10.5-2.6-15.7-4.7-1.3-.5-25.1-18.8-25.1-9.4v52.5c-1.5.6-4.7-1.4-4.7-2.3v-52.5h0Z"/>
  </g>
  <ellipse class="cls-3" cx="199.78" cy="269.96" rx="74.55" ry="66.49"/>
  <g>
    <path class="cls-1" d="M193.78,250.03v55.52c0,.07.4,1,.48,1.14,1.11,1.75,3.72,1.8,4.86.04.13-.19.55-1.12.55-1.29v-55.4c6.09.44,12.25,2.27,17.25,5.8,3.14,2.21,5.56,5.11,7.67,8.3,3.84.11,7.58-.46,11.27.84,5.17,1.82,9.59,7.49,9.57,13.08-.01,4.2-5.81,5.28-7.31,1.52-.71-1.78-.33-3.19-1.66-5.04-.75-1.04-2.96-2.67-4.27-2.67h-4.45c1.06,4.11.78,8.38.81,12.59.14.14,1.72-.12,2.02-.12,7.33.07,13.92,6.05,14.39,13.46.33,5.28-6.33,6.02-7.46,1.8-.57-2.11-.32-3.48-1.96-5.32-.83-.93-2.9-2.19-4.16-2.19h-2.95c.17.98.16,2.16.12,3.18-.08,2.14-.41,4.33-.85,6.43-.19.88-.46,1.75-.66,2.63,5.47-.7,10.53.74,14.15,4.97,1.7,1.98,3.42,5.65,3.64,8.26.45,5.36-6.57,6.68-7.83,1.24-.53-2.32-.7-3.76-2.69-5.4-3.07-2.54-7.03-1.16-10.67-1.44-1.94,3.22-4.48,6.11-7.49,8.37-14.4,10.81-36.87,7.17-46.21-8.42-.42-.25-2.36.05-2.94.06-3.22.06-6.01-.56-8.44,2.07-1.65,1.78-1.53,3.18-2.1,5.29-1.22,4.52-7.93,3.57-7.66-1.43.29-5.53,4.88-11.33,10.11-13,1.73-.55,5.73-1.02,7.45-.63.14.03.14.13.12-.12-.08-1.12-.69-2.84-.89-4.08-.43-2.67-.56-5.42-.38-8.11-2.8-.1-5.29.22-7.16,2.49-1.41,1.71-1.3,2.94-1.79,4.91-1.08,4.36-7.89,3.84-7.58-1.45.24-4.15,2.94-8.68,6.32-11.01,3.01-2.07,6.46-2.7,10.09-2.56v-5.84c.22-2.23.27-4.48.92-6.64h-4.45c-1.79,0-4.18,2.19-4.93,3.73-1.14,2.34-.38,5.99-4.08,6.32-3.36.31-4.5-2.31-4.07-5.23.9-6.11,5.12-11.02,11.27-12.19,3.06-.58,6.22-.04,9.3-.4,2.23-3.13,4.76-6.04,7.9-8.28,4.88-3.48,10.87-5.15,16.79-5.8l.04.02Z"/>
    <path class="cls-1" d="M190.55,235.13c4.11-.7,8.28-.88,12.37.07,1.11-7.59,7-14.58,15.2-14.05,3.3.21,5.72,3.13,3.57,6.12-1.45,2.02-4.12,1.04-6.17,1.69s-3.69,2.51-4.48,4.41c-.29.69-1.19,3.78-.89,4.3.05.1,1.32.99,1.56,1.21,3.37,3.08,6.16,7.37,6.58,12.02.05.59-.12,1.23.12,1.79-.15.12-2.56-1.54-2.93-1.75-10.55-5.95-27.46-5.7-37.9.39-.24.14-2.3,1.59-2.39,1.48-.24-5.5,2.82-10.53,6.81-14.04.33-.29,1.33-.9,1.51-1.15.1-.13.1-.18.1-.34,0-.49-.33-1.78-.46-2.32-.86-3.29-3.03-6.05-6.63-6.31-.71-.05-1.5.07-2.2,0-4.18-.41-4.46-6.51-.2-7.36,2.28-.45,5.18.07,7.3.95,5.2,2.16,8.55,7.35,9.13,12.88h0Z"/>
  </g>
  <g>
    <rect class="cls-1" x="1192.76" width="20.06" height="547.75"/>
    <path class="cls-1" d="M1371.38,88.36c107.64-14.88,117.33,137.82,24.07,147.51-104.4,10.85-111.51-135.43-24.07-147.51h0ZM1374.45,111.48c-53.66,8.63-50.11,110.33,19.27,101.05,58.13-7.78,51.53-112.44-19.27-101.05h0Z"/>
    <path class="cls-1" d="M1512.16,219.1v49.38h-23.92l-2.31-2.31V124.99h26.23l.02,16.97c32.86-42.74,86.28-10.49,86.52,37.78.24,48.62-51.78,76.96-86.54,39.36h0ZM1541.1,145.48c-41.04,1.62-39.7,70.67,2.7,69.1,40.66-1.51,37.07-70.67-2.7-69.1Z"/>
    <path class="cls-2" d="M2113.92,307.05v58.63c31.89-38.5,83.57-15,86.47,33.1,3.15,52.18-47.73,82.69-86.45,44.05l-.02,15.43h-24.69v-148.9l2.31-2.31h22.38ZM2153.62,369.23c-41.89-11.62-56.15,61.47-15.41,68.59,46.03,8.05,46.97-59.84,15.41-68.59h0Z"/>
    <path class="cls-1" d="M2030.31,103.66l-11.59,19.63c-13.38-9.98-61.53-23.93-61.91,3.97-.3,21.8,38.18,22.99,53.23,29.85,59.42,27.07,15.52,102.31-59.64,71.98-20.95-8.45-31.15-15.79-9.86-32.92,18.95,13.08,45.94,26.1,66.93,9.83,26.3-36.08-68.06-24.9-75.25-65.2-10.35-58.06,63.36-65,98.09-37.14h0Z"/>
    <path class="cls-1" d="M2110.54,122.33c73.96-4.15,81.61,105.25,13.22,113.57-84.69,10.3-87.4-109.4-13.22-113.57ZM2104.25,146.95c-30.83,6.47-30.14,62.83,4.41,67.37,52.65,6.93,49.61-78.7-4.41-67.37Z"/>
    <path class="cls-1" d="M2535.15,189.79c4.48,30.42,39.45,32.85,59.13,14.12l13.21,14.09c-48.45,47.8-121.47-3.75-91.13-66.29,28.38-58.51,111.32-22.23,95.17,38.08h-76.38ZM2589.15,172.81c-2.23-37.89-53.06-37.23-54,0h54Z"/>
    <path class="cls-2" d="M1529.13,348.71h24.69v109.55h-24.69l-.02-15.43c-20.26,29.67-72.5,19.41-72.5-19.29v-74.83h23.92c10.5,23.84-16.83,100.54,33.21,87.22,7.22-1.92,15.39-13.11,15.39-20.1v-67.12h0Z"/>
    <path class="cls-1" d="M2220.38,124.98v71.75c0,21.86,46.29,21.85,46.29-3.09v-68.66h24.69v109.55h-24.69l-.02-15.43c-14.81,27.88-70.96,18.12-70.96-11.57v-82.55h24.69Z"/>
    <path class="cls-2" d="M2713.24,371.19c-12.79-3.83-27.72-10.59-29.35,9.95,3.56,14.29,53.29,10.91,56.55,40.78,4.03,36.96-33.05,42.24-60.92,34.7-18.66-5.05-31.07-12.29-12.46-28.9,8.66,8.96,50.1,21.23,51.21,1.77,1.13-19.66-57-10.58-58.16-47.68-1.22-39.16,53.77-42.8,77.03-22.82l-8.51,18.9c-5.38-1.57-10.03-5.09-15.39-6.7h0Z"/>
    <path class="cls-1" d="M2448.46,122.34c16.73-1.1,37.84,4.77,46.03,20.41l-14.34,16.05c-77.3-54.89-77.31,98.28,1.54,43.46l12.66,16.85c-24.69,25.25-70.25,23.09-89.1-8.2-21.77-36.13.59-85.76,43.21-88.57h0Z"/>
    <path class="cls-2" d="M2430.23,319.4v29.32h27.77v23.14h-27.77v57.86c0,.59,2.91,4.71,3.79,5.45l23.97-.05-.92,20.24c-14.11,9.5-51.54,4.08-51.54-16.39v-67.12h-13.89v-23.14h13.89v-29.32h24.7Z"/>
    <path class="cls-1" d="M2385.48,151.21c-19.67-3.75-38.57,16.07-38.57,34.72v48.6h-24.69v-109.55h24.69v23.14c7.85-13.54,20.57-29.47,38.57-23.92v27h0Z"/>
    <path class="cls-2" d="M1953.45,347.17v27.77c-16.91-3.32-37.03,15.13-37.03,31.63v51.69h-24.69v-109.55h24.69v23.14c6-15.33,20.16-26.04,37.03-24.69h0Z"/>
    <polygon class="cls-2" points="1610.91 458.26 1586.22 458.26 1586.22 307.05 1608.59 307.05 1610.91 309.37 1610.91 458.26"/>
    <rect class="cls-2" x="2285.19" y="308.6" width="24.69" height="149.67"/>
    <rect class="cls-2" x="2226.55" y="348.71" width="24.69" height="109.55"/>
    <rect class="cls-2" x="2343.82" y="348.71" width="24.69" height="109.55"/>
    <rect class="cls-2" x="2484.23" y="348.71" width="24.69" height="109.55"/>
    <rect class="cls-2" x="2484.23" y="308.6" width="26.23" height="24.69"/>
    <rect class="cls-2" x="2226.55" y="308.6" width="26.23" height="24.69"/>
    <rect class="cls-2" x="2342.28" y="308.6" width="26.23" height="24.69"/>
    <path class="cls-2" d="M1788.1,413.75c4.48,30.42,39.45,32.85,59.13,14.12l13.21,14.09c-48.45,47.8-121.47-3.75-91.13-66.29,28.38-58.51,111.32-22.23,95.17,38.08h-76.38ZM1842.11,396.78c-2.23-37.89-53.06-37.23-54,0h54Z"/>
    <path class="cls-2" d="M2562.13,413.99c4.48,30.42,39.45,32.85,59.13,14.12l13.21,14.09c-48.45,47.8-121.47-3.75-91.13-66.29,28.38-58.51,111.32-22.23,95.17,38.08h-76.38ZM2616.13,397.01c-2.23-37.89-53.06-37.23-54,0h54Z"/>
    <path class="cls-1" d="M1643.04,188.9c4.48,30.42,39.45,32.85,59.13,14.12l13.21,14.09c-48.45,47.8-121.47-3.75-91.13-66.29,28.38-58.51,111.32-22.23,95.17,38.08h-76.38ZM1697.04,171.92c-2.23-37.89-53.06-37.23-54,0h54Z"/>
    <path class="cls-2" d="M2015.02,348.23c15.26,0,27.45,4.31,36.57,12.93s13.67,20,13.67,34.13v62.96h-25.65v-16.54c-3.39,5.65-8.59,10.21-15.58,13.67-7,3.46-14.17,5.19-21.52,5.19-12.3,0-22.23-3.18-29.79-9.54s-11.34-14.7-11.34-25.02,3.99-18.13,11.98-24.27c7.98-6.15,18.55-9.22,31.69-9.22s24.09,3.04,34.56,9.12v-7.63c0-7.63-2.51-13.78-7.53-18.44s-11.77-7-20.25-7c-5.51,0-11.45.99-17.81,2.97s-11.73,4.52-16.11,7.63l-8.48-16.96c4.8-4.1,11.48-7.45,20.03-10.07,8.55-2.61,17.07-3.92,25.55-3.92h.01ZM2010.78,408.23c-7.07,0-12.72,1.56-16.96,4.66-4.24,3.11-6.36,7.28-6.36,12.51,0,4.81,2.08,8.69,6.25,11.66,4.17,2.97,9.72,4.45,16.64,4.45,5.51,0,11.02-1.45,16.54-4.35,5.51-2.9,9.89-6.68,13.14-11.34v-10.18c-8.76-4.95-18.52-7.42-29.26-7.42h.01Z"/>
    <path class="cls-1" d="M2018.65,124.39c-14.52-9.11-32.73-18.77-50.34-12.69-14.29,4.93-17.13,21.79-3.73,29.78,24.44,14.59,71.35,7.91,71.54,50.45.22,50.68-65.49,49.74-98,29.74-2.24-1.38-10.67-6.94-11.79-8.7-.49-.75-.82-1.23-.26-2.05l14.14-16.27c8.99,6.08,16.83,12.43,27.54,15.52,14.03,4.03,42.69,5,43.33-15.41.56-18.55-29.41-21.01-42.62-25.04-18.88-5.75-35.68-13.47-37.39-35.64-4.03-51.8,63.48-56.01,95.76-32.06,1.72,1.27,5.04,2.84,3.84,5.45l-12.05,16.91h.04,0Z"/>
    <polygon class="cls-2" points="1332.97 312.47 1376.56 422.59 1418.94 312.47 1446.62 312.47 1386.3 457.38 1364.26 457.27 1305.29 312.47 1332.97 312.47"/>
    <path class="cls-1" d="M1803.57,124.86c11.77,0,21.25,4.23,28.42,12.69s10.76,19.59,10.76,33.39v59.28h-24.77v-58.26c0-8.12-1.96-14.62-5.89-19.49-3.93-4.87-9.07-7.31-15.43-7.31-7.99,0-14.38,2.94-19.18,8.83-4.81,5.89-7.28,13.7-7.41,23.45v52.78h-24.56v-103.12h24.56v18.47c2.71-6.22,7.1-11.23,13.19-15.02,6.09-3.79,12.86-5.68,20.3-5.68h.01Z"/>
    <path class="cls-2" d="M1701.09,349.39c11.77,0,21.25,4.23,28.42,12.69s10.76,19.59,10.76,33.39v59.28h-24.77v-58.26c0-8.12-1.96-14.62-5.89-19.49s-9.07-7.31-15.43-7.31c-7.99,0-14.38,2.94-19.18,8.83-4.81,5.89-7.28,13.7-7.41,23.45v52.78h-24.56v-103.12h24.56v18.47c2.71-6.22,7.1-11.23,13.19-15.02,6.09-3.79,12.86-5.68,20.3-5.68h.01Z"/>
  </g>
</svg>