<?xml version="1.0" encoding="UTF-8"?>
<svg id="Layer_1" xmlns="http://www.w3.org/2000/svg" version="1.1" viewBox="0 0 2747.5 547.8">
  <!-- Generator: Adobe Illustrator 29.5.0, SVG Export Plug-In . SVG Version: 2.1.0 Build 137)  -->
  <defs>
    <style>
      .st0 {
        fill: #fff;
      }

      .st1 {
        fill: #e6252d;
      }

      .st2 {
        fill: #e02129;
      }

      .st3 {
        fill: #1c181a;
      }

      .st4 {
        fill: #201c1d;
      }
    </style>
  </defs>
  <g id="Layer_1-2">
    <path class="st3" d="M62,447.6l65.8-68.2c2.2-.9,22.7,12,28.2,14.1,139.4,53.3,243.2-129.9,129.1-221.5-100.8-80.9-244,19.5-203.1,143.6,3.9,12,10.8,21.7,15.4,33.2l-47.1,47C-32,294.9,7.4,142.3,126.3,91.3c115-49.3,248.1,20.7,271.7,143.2,29.4,152.7-116.5,274.9-262.7,223.6-15.9-5.6-17-10.6-34.9-10.6h-38.4Z"/>
    <path class="st3" d="M688.1,173.4c-38.9-24.4-87.7-50.3-134.9-34-38.3,13.2-45.9,58.4-10,79.8,65.5,39.1,191.2,21.2,191.7,135.2.6,135.8-175.5,133.3-262.6,79.7-6-3.7-28.6-18.6-31.6-23.3-1.3-2-2.2-3.3-.7-5.5l37.9-43.6c24.1,16.3,45.1,33.3,73.8,41.6,37.6,10.8,114.4,13.4,116.1-41.3,1.5-49.7-78.8-56.3-114.2-67.1-50.6-15.4-95.6-36.1-100.2-95.5-10.8-138.8,170.1-150.1,256.6-85.9,4.6,3.4,13.5,7.6,10.3,14.6l-32.3,45.3h.1Z"/>
    <polygon class="st3" points="821.4 81.2 937.3 374 1050 81.2 1123.6 81.2 963.2 466.5 904.6 466.2 747.8 81.2 821.4 81.2"/>
    <path class="st2" d="M190.1,181.8c128.8-15,141.2,170.8,26,182.6-126.4,12.9-137.9-169.5-26-182.6h0ZM209,236c-7.4,5.6-10.8-5.4-13-7.7-9.6-10.3-19.4-.8-14,1.7s9.5-.3,10.1,5.6-9,9.9-7.9,16.4c13.2-5.9,25.9-6.4,39.1,0,3.2-7.1-7.9-12.1-7.8-14.8.1-9.4,11.6-6.2,12.6-7.2,4.3-4.3-8.9-11.7-17.1-.6-1.3,1.8-1.4,6.3-1.9,6.6h-.1ZM201.4,250.3c-10.1-1.5-19.3,10-25,11.8s-23.2,1.5-14.9,16.3c3.9.8,5.1-13.1,13.3-9.4,1.9,13.1-2.8,8.7-9,12.2-10,5.7-8.1,20.2-1.3,12.8,2.7-3,1.5-9.6,10.3-7.7,1.3,15.9-.8,8.4-7.9,11.7-11.5,5.3-9,20.2-1.7,14.8s0-10.8,8.6-9.3c1,.2,5.8,10.8,12.4,14.5,13.7,7.9,35,5.5,44.8-7.6s1.6-6.5,1.8-6.7c4-3.1,11.3,4.6,11,9.2l5.5-1.5c2.2-3.1-1.6-8.2-3.9-10.3-7.6-6.8-13.5.9-11-14.8,9-2.6,8.4,8.7,9.4,9.4,6,4.2,8.4-7.8,1.5-13.2-7.4-5.8-13.2,3.6-10.9-13.4,7.4-1.3,8.3,3.2,9.4,9.4,8.3,1.4,6.9-7.2,3.1-11.8-4.5-5.5-10.5-2.6-15.7-4.7-1.3-.5-25.1-18.8-25.1-9.4v52.5c-1.5.6-4.7-1.4-4.7-2.3v-52.5h0Z"/>
  </g>
  <ellipse class="st2" cx="206.6" cy="270" rx="74.6" ry="66.5"/>
  <g>
    <path class="st0" d="M200.6,250v55.5c0,0,.4,1,.5,1.1,1.1,1.8,3.7,1.8,4.9,0,.1-.2.5-1.1.5-1.3v-55.4c6.1.4,12.2,2.3,17.2,5.8,3.1,2.2,5.6,5.1,7.7,8.3,3.8.1,7.6-.5,11.3.8,5.2,1.8,9.6,7.5,9.6,13.1,0,4.2-5.8,5.3-7.3,1.5-.7-1.8-.3-3.2-1.7-5-.8-1-3-2.7-4.3-2.7h-4.5c1.1,4.1.8,8.4.8,12.6.1.1,1.7-.1,2-.1,7.3,0,13.9,6,14.4,13.5.3,5.3-6.3,6-7.5,1.8-.6-2.1-.3-3.5-2-5.3-.8-.9-2.9-2.2-4.2-2.2h-3c.2,1,.2,2.2.1,3.2,0,2.1-.4,4.3-.9,6.4-.2.9-.5,1.8-.7,2.6,5.5-.7,10.5.7,14.1,5,1.7,2,3.4,5.6,3.6,8.3.5,5.4-6.6,6.7-7.8,1.2-.5-2.3-.7-3.8-2.7-5.4-3.1-2.5-7-1.2-10.7-1.4-1.9,3.2-4.5,6.1-7.5,8.4-14.4,10.8-36.9,7.2-46.2-8.4-.4-.2-2.4,0-2.9,0-3.2,0-6-.6-8.4,2.1-1.6,1.8-1.5,3.2-2.1,5.3-1.2,4.5-7.9,3.6-7.7-1.4.3-5.5,4.9-11.3,10.1-13,1.7-.5,5.7-1,7.4-.6.1,0,.1.1.1-.1,0-1.1-.7-2.8-.9-4.1-.4-2.7-.6-5.4-.4-8.1-2.8-.1-5.3.2-7.2,2.5-1.4,1.7-1.3,2.9-1.8,4.9-1.1,4.4-7.9,3.8-7.6-1.5.2-4.1,2.9-8.7,6.3-11,3-2.1,6.5-2.7,10.1-2.6v-5.8c.2-2.2.3-4.5.9-6.6h-4.5c-1.8,0-4.2,2.2-4.9,3.7-1.1,2.3-.4,6-4.1,6.3-3.4.3-4.5-2.3-4.1-5.2.9-6.1,5.1-11,11.3-12.2,3.1-.6,6.2,0,9.3-.4,2.2-3.1,4.8-6,7.9-8.3,4.9-3.5,10.9-5.1,16.8-5.8h0Z"/>
    <path class="st0" d="M197.3,235.1c4.1-.7,8.3-.9,12.4,0,1.1-7.6,7-14.6,15.2-14,3.3.2,5.7,3.1,3.6,6.1-1.5,2-4.1,1-6.2,1.7s-3.7,2.5-4.5,4.4c-.3.7-1.2,3.8-.9,4.3,0,.1,1.3,1,1.6,1.2,3.4,3.1,6.2,7.4,6.6,12,0,.6-.1,1.2.1,1.8-.1.1-2.6-1.5-2.9-1.8-10.5-6-27.5-5.7-37.9.4-.2.1-2.3,1.6-2.4,1.5-.2-5.5,2.8-10.5,6.8-14,.3-.3,1.3-.9,1.5-1.1.1-.1.1-.2.1-.3,0-.5-.3-1.8-.5-2.3-.9-3.3-3-6-6.6-6.3-.7,0-1.5,0-2.2,0-4.2-.4-4.5-6.5-.2-7.4,2.3-.5,5.2,0,7.3,1,5.2,2.2,8.5,7.4,9.1,12.9h0Z"/>
  </g>
  <g>
    <rect class="st4" x="1199.5" width="20.1" height="547.8"/>
    <path class="st4" d="M1378.2,88.4c107.6-14.9,117.3,137.8,24.1,147.5-104.4,10.9-111.5-135.4-24.1-147.5h0ZM1381.2,111.5c-53.7,8.6-50.1,110.3,19.3,101,58.1-7.8,51.5-112.4-19.3-101.1h0Z"/>
    <path class="st4" d="M1518.9,219.1v49.4h-23.9l-2.3-2.3V125h26.2v17c32.9-42.7,86.3-10.5,86.5,37.8.2,48.6-51.8,77-86.5,39.4h0ZM1547.9,145.5c-41,1.6-39.7,70.7,2.7,69.1,40.7-1.5,37.1-70.7-2.7-69.1Z"/>
    <path class="st1" d="M2120.7,307.1v58.6c31.9-38.5,83.6-15,86.5,33.1,3.1,52.2-47.7,82.7-86.4,44.1v15.4h-24.7v-148.9l2.3-2.3h22.4ZM2160.4,369.2c-41.9-11.6-56.1,61.5-15.4,68.6,46,8,47-59.8,15.4-68.6h0Z"/>
    <path class="st4" d="M2037.1,103.7l-11.6,19.6c-13.4-10-61.5-23.9-61.9,4-.3,21.8,38.2,23,53.2,29.9,59.4,27.1,15.5,102.3-59.6,72-20.9-8.5-31.2-15.8-9.9-32.9,18.9,13.1,45.9,26.1,66.9,9.8,26.3-36.1-68.1-24.9-75.2-65.2-10.3-58.1,63.4-65,98.1-37.1h0Z"/>
    <path class="st4" d="M2117.3,122.3c74-4.1,81.6,105.2,13.2,113.6-84.7,10.3-87.4-109.4-13.2-113.6ZM2111,146.9c-30.8,6.5-30.1,62.8,4.4,67.4,52.6,6.9,49.6-78.7-4.4-67.4Z"/>
    <path class="st4" d="M2541.9,189.8c4.5,30.4,39.4,32.9,59.1,14.1l13.2,14.1c-48.4,47.8-121.5-3.8-91.1-66.3,28.4-58.5,111.3-22.2,95.2,38.1h-76.4ZM2595.9,172.8c-2.2-37.9-53.1-37.2-54,0h54Z"/>
    <path class="st1" d="M1535.9,348.7h24.7v109.6h-24.7v-15.4c-20.3,29.7-72.5,19.4-72.5-19.3v-74.8h23.9c10.5,23.8-16.8,100.5,33.2,87.2,7.2-1.9,15.4-13.1,15.4-20.1v-67.1h0Z"/>
    <path class="st4" d="M2227.2,125v71.8c0,21.9,46.3,21.9,46.3-3.1v-68.7h24.7v109.5h-24.7v-15.4c-14.8,27.9-71,18.1-71-11.6v-82.6h24.7Z"/>
    <path class="st1" d="M2720,371.2c-12.8-3.8-27.7-10.6-29.4,10,3.6,14.3,53.3,10.9,56.6,40.8,4,37-33.1,42.2-60.9,34.7-18.7-5-31.1-12.3-12.5-28.9,8.7,9,50.1,21.2,51.2,1.8,1.1-19.7-57-10.6-58.2-47.7-1.2-39.2,53.8-42.8,77-22.8l-8.5,18.9c-5.4-1.6-10-5.1-15.4-6.7h0Z"/>
    <path class="st4" d="M2455.2,122.3c16.7-1.1,37.8,4.8,46,20.4l-14.3,16.1c-77.3-54.9-77.3,98.3,1.5,43.5l12.7,16.9c-24.7,25.2-70.2,23.1-89.1-8.2-21.8-36.1.6-85.8,43.2-88.6h0Z"/>
    <path class="st1" d="M2437,319.4v29.3h27.8v23.1h-27.8v57.9c0,.6,2.9,4.7,3.8,5.5h24s-.9,20.2-.9,20.2c-14.1,9.5-51.5,4.1-51.5-16.4v-67.1h-13.9v-23.1h13.9v-29.3h24.7Z"/>
    <path class="st4" d="M2392.3,151.2c-19.7-3.8-38.6,16.1-38.6,34.7v48.6h-24.7v-109.6h24.7v23.1c7.9-13.5,20.6-29.5,38.6-23.9v27h0Z"/>
    <path class="st1" d="M1960.2,347.2v27.8c-16.9-3.3-37,15.1-37,31.6v51.7h-24.7v-109.5h24.7v23.1c6-15.3,20.2-26,37-24.7h0Z"/>
    <polygon class="st1" points="1617.7 458.3 1593 458.3 1593 307.1 1615.4 307.1 1617.7 309.4 1617.7 458.3"/>
    <rect class="st1" x="2292" y="308.6" width="24.7" height="149.7"/>
    <rect class="st1" x="2233.3" y="348.7" width="24.7" height="109.6"/>
    <rect class="st1" x="2350.6" y="348.7" width="24.7" height="109.6"/>
    <rect class="st1" x="2491" y="348.7" width="24.7" height="109.6"/>
    <rect class="st1" x="2491" y="308.6" width="26.2" height="24.7"/>
    <rect class="st1" x="2233.3" y="308.6" width="26.2" height="24.7"/>
    <rect class="st1" x="2349.1" y="308.6" width="26.2" height="24.7"/>
    <path class="st1" d="M1794.9,413.8c4.5,30.4,39.4,32.8,59.1,14.1l13.2,14.1c-48.4,47.8-121.5-3.8-91.1-66.3,28.4-58.5,111.3-22.2,95.2,38.1h-76.4ZM1848.9,396.8c-2.2-37.9-53.1-37.2-54,0h54Z"/>
    <path class="st1" d="M2568.9,414c4.5,30.4,39.4,32.8,59.1,14.1l13.2,14.1c-48.4,47.8-121.5-3.8-91.1-66.3,28.4-58.5,111.3-22.2,95.2,38.1h-76.4ZM2622.9,397c-2.2-37.9-53.1-37.2-54,0h54Z"/>
    <path class="st4" d="M1649.8,188.9c4.5,30.4,39.4,32.9,59.1,14.1l13.2,14.1c-48.4,47.8-121.5-3.8-91.1-66.3,28.4-58.5,111.3-22.2,95.2,38.1h-76.4ZM1703.8,171.9c-2.2-37.9-53.1-37.2-54,0h54Z"/>
    <path class="st1" d="M2021.8,348.2c15.3,0,27.4,4.3,36.6,12.9s13.7,20,13.7,34.1v63h-25.6v-16.5c-3.4,5.7-8.6,10.2-15.6,13.7-7,3.5-14.2,5.2-21.5,5.2-12.3,0-22.2-3.2-29.8-9.5s-11.3-14.7-11.3-25,4-18.1,12-24.3c8-6.1,18.6-9.2,31.7-9.2s24.1,3,34.6,9.1v-7.6c0-7.6-2.5-13.8-7.5-18.4s-11.8-7-20.2-7-11.4,1-17.8,3-11.7,4.5-16.1,7.6l-8.5-17c4.8-4.1,11.5-7.5,20-10.1,8.6-2.6,17.1-3.9,25.6-3.9h0ZM2017.6,408.2c-7.1,0-12.7,1.6-17,4.7-4.2,3.1-6.4,7.3-6.4,12.5s2.1,8.7,6.2,11.7c4.2,3,9.7,4.5,16.6,4.5s11-1.5,16.5-4.3c5.5-2.9,9.9-6.7,13.1-11.3v-10.2c-8.8-5-18.5-7.4-29.3-7.4h0Z"/>
    <path class="st3" d="M2025.4,124.4c-14.5-9.1-32.7-18.8-50.3-12.7-14.3,4.9-17.1,21.8-3.7,29.8,24.4,14.6,71.4,7.9,71.5,50.5.2,50.7-65.5,49.7-98,29.7-2.2-1.4-10.7-6.9-11.8-8.7-.5-.8-.8-1.2-.3-2l14.1-16.3c9,6.1,16.8,12.4,27.5,15.5,14,4,42.7,5,43.3-15.4.6-18.5-29.4-21-42.6-25-18.9-5.8-35.7-13.5-37.4-35.6-4-51.8,63.5-56,95.8-32.1,1.7,1.3,5,2.8,3.8,5.4l-12.1,16.9h0,0Z"/>
    <polygon class="st1" points="1339.8 312.5 1383.3 422.6 1425.7 312.5 1453.4 312.5 1393.1 457.4 1371 457.3 1312.1 312.5 1339.8 312.5"/>
    <path class="st4" d="M1810.4,124.9c11.8,0,21.2,4.2,28.4,12.7s10.8,19.6,10.8,33.4v59.3h-24.8v-58.3c0-8.1-2-14.6-5.9-19.5-3.9-4.9-9.1-7.3-15.4-7.3s-14.4,2.9-19.2,8.8c-4.8,5.9-7.3,13.7-7.4,23.4v52.8h-24.6v-103.1h24.6v18.5c2.7-6.2,7.1-11.2,13.2-15,6.1-3.8,12.9-5.7,20.3-5.7h0Z"/>
    <path class="st1" d="M1707.9,349.4c11.8,0,21.2,4.2,28.4,12.7s10.8,19.6,10.8,33.4v59.3h-24.8v-58.3c0-8.1-2-14.6-5.9-19.5s-9.1-7.3-15.4-7.3-14.4,2.9-19.2,8.8c-4.8,5.9-7.3,13.7-7.4,23.5v52.8h-24.6v-103.1h24.6v18.5c2.7-6.2,7.1-11.2,13.2-15,6.1-3.8,12.9-5.7,20.3-5.7h0Z"/>
  </g>
</svg>