<svg xmlns="http://www.w3.org/2000/svg" viewBox="0 0 261 63"><defs><style>.a{fill:#c1272d;}.b{fill:#8d272d;}.c{fill:#fff;}</style></defs><title>reportvuln</title><rect class="a" x="0.5" y="0.5" width="260" height="62" rx="11.5" ry="11.5"/><path class="b" d="M249,1a11,11,0,0,1,11,11V51a11,11,0,0,1-11,11H12A11,11,0,0,1,1,51V12A11,11,0,0,1,12,1H249m0-1H12A12,12,0,0,0,0,12V51A12,12,0,0,0,12,63H249a12,12,0,0,0,12-12V12A12,12,0,0,0,249,0Z"/><path class="c" d="M35.49,21.86a5.65,5.65,0,0,1,3.83,1.2,4.14,4.14,0,0,1,1.38,3.29A5.25,5.25,0,0,1,40,29.09a3.67,3.67,0,0,1-2.27,1.61v0a3.13,3.13,0,0,1,1.21.48,2.74,2.74,0,0,1,.75.81,3.83,3.83,0,0,1,.41,1c.08.39.15.79.2,1.2s.06.84.07,1.27.06.86.12,1.28A8.48,8.48,0,0,0,40.76,38a2.93,2.93,0,0,0,.54,1H38.75a1.5,1.5,0,0,1-.32-.72,7.24,7.24,0,0,1-.11-1c0-.38,0-.78,0-1.21a7.6,7.6,0,0,0-.14-1.27,10,10,0,0,0-.24-1.19,2.82,2.82,0,0,0-.46-1,2.23,2.23,0,0,0-.81-.67,3,3,0,0,0-1.35-.25H29.71V39H27.43V21.86ZM36,29.64a3.33,3.33,0,0,0,1.26-.47,2.49,2.49,0,0,0,.86-.93,3.13,3.13,0,0,0,.33-1.53,3.07,3.07,0,0,0-.72-2.11,3,3,0,0,0-2.33-.82H29.71v6h4.75A9.15,9.15,0,0,0,36,29.64Z"/><path class="c" d="M52.31,38.21a5.62,5.62,0,0,1-3.5,1,6.39,6.39,0,0,1-2.58-.48,5.06,5.06,0,0,1-1.84-1.34,5.84,5.84,0,0,1-1.11-2.06,9.84,9.84,0,0,1-.42-2.62,7.41,7.41,0,0,1,.43-2.59,6.1,6.1,0,0,1,1.21-2,5.49,5.49,0,0,1,1.85-1.35,5.63,5.63,0,0,1,2.34-.48,5.08,5.08,0,0,1,2.75.69,5.29,5.29,0,0,1,1.75,1.74A6.88,6.88,0,0,1,54.1,31a9.93,9.93,0,0,1,.21,2.38H45A5,5,0,0,0,45.21,35a3.45,3.45,0,0,0,.7,1.29,3.29,3.29,0,0,0,1.22.9,4.14,4.14,0,0,0,1.75.34,3.55,3.55,0,0,0,2.13-.6,2.93,2.93,0,0,0,1.09-1.83h2A5,5,0,0,1,52.31,38.21Zm-.49-8a3.58,3.58,0,0,0-.74-1.12A3.43,3.43,0,0,0,50,28.38a3.53,3.53,0,0,0-1.4-.28,3.65,3.65,0,0,0-1.43.28,3.24,3.24,0,0,0-1.09.76,3.79,3.79,0,0,0-.72,1.11A4.15,4.15,0,0,0,45,31.61h7.13A4.23,4.23,0,0,0,51.82,30.24Z"/><path class="c" d="M58.53,26.59v1.68h0a3,3,0,0,1,1.58-1.5,6,6,0,0,1,2.38-.47,5.66,5.66,0,0,1,2.51.53,5.06,5.06,0,0,1,1.77,1.43,6.31,6.31,0,0,1,1.07,2.08,8.42,8.42,0,0,1,.36,2.49,8.88,8.88,0,0,1-.35,2.5,5.86,5.86,0,0,1-1.05,2.05,5.18,5.18,0,0,1-1.78,1.38,5.69,5.69,0,0,1-2.48.5,6,6,0,0,1-2.14-.4,4.29,4.29,0,0,1-1-.59,3.23,3.23,0,0,1-.83-.93h0v6.39h-2V26.59ZM65.86,31a4.48,4.48,0,0,0-.69-1.48,3.51,3.51,0,0,0-1.2-1,3.61,3.61,0,0,0-1.72-.39,3.51,3.51,0,0,0-1.75.41,3.57,3.57,0,0,0-1.18,1.07,4.63,4.63,0,0,0-.66,1.5,7.52,7.52,0,0,0-.2,1.7,7.39,7.39,0,0,0,.21,1.77,4.49,4.49,0,0,0,.69,1.5,3.4,3.4,0,0,0,1.21,1,3.74,3.74,0,0,0,1.8.4,3.5,3.5,0,0,0,1.76-.41A3.11,3.11,0,0,0,65.27,36a4.71,4.71,0,0,0,.63-1.54,7.94,7.94,0,0,0,.19-1.77A6.38,6.38,0,0,0,65.86,31Z"/><path class="c" d="M70.36,30.25a5.84,5.84,0,0,1,1.15-2.06,5.38,5.38,0,0,1,1.9-1.38,6.88,6.88,0,0,1,5.2,0,5.31,5.31,0,0,1,1.88,1.38,5.69,5.69,0,0,1,1.15,2.06A8.17,8.17,0,0,1,82,32.81a8,8,0,0,1-.39,2.54,5.65,5.65,0,0,1-1.15,2,5.28,5.28,0,0,1-1.88,1.37,7.14,7.14,0,0,1-5.2,0,5.36,5.36,0,0,1-1.9-1.37,5.8,5.8,0,0,1-1.15-2A8,8,0,0,1,70,32.81,8.17,8.17,0,0,1,70.36,30.25Zm2.08,4.56a4.12,4.12,0,0,0,.83,1.47,3.62,3.62,0,0,0,1.23.9,3.78,3.78,0,0,0,3,0,3.66,3.66,0,0,0,1.24-.9,4.28,4.28,0,0,0,.83-1.47,6.14,6.14,0,0,0,.3-2,6.25,6.25,0,0,0-.3-2,4.37,4.37,0,0,0-.83-1.47,3.44,3.44,0,0,0-1.24-.91,3.68,3.68,0,0,0-3,0,3.4,3.4,0,0,0-1.23.91,4.21,4.21,0,0,0-.83,1.47,6.25,6.25,0,0,0-.3,2A6.14,6.14,0,0,0,72.44,34.81Z"/><path class="c" d="M86.27,26.59v2.62h0A5.55,5.55,0,0,1,88.15,27a4.59,4.59,0,0,1,2.73-.68v2.16a5.86,5.86,0,0,0-2.09.34,3.28,3.28,0,0,0-1.39,1,4.17,4.17,0,0,0-.77,1.58,8.42,8.42,0,0,0-.24,2.12V39h-2V26.59Z"/><path class="c" d="M97.72,26.59v1.8H95.25V36.1a2.16,2.16,0,0,0,.06.57.55.55,0,0,0,.23.34.92.92,0,0,0,.46.15,5.57,5.57,0,0,0,.78,0h.94V39H96.16a7.55,7.55,0,0,1-1.36-.11,2,2,0,0,1-.91-.39,1.75,1.75,0,0,1-.51-.82,4.46,4.46,0,0,1-.17-1.39v-7.9H91.1v-1.8h2.11V22.87h2v3.72Z"/><path class="c" d="M111.14,39l-6-17.14h2.45l4.9,14.86h0l5-14.86h2.37L113.73,39Z"/><path class="c" d="M128.78,39V37h-.05a4.16,4.16,0,0,1-1.66,1.69,4.94,4.94,0,0,1-2.37.54,5.46,5.46,0,0,1-2-.32,3.2,3.2,0,0,1-1.32-.92,3.38,3.38,0,0,1-.71-1.43,7.5,7.5,0,0,1-.21-1.84V26.59h2V35a2.48,2.48,0,0,0,.68,1.83,2.5,2.5,0,0,0,1.84.67,4.15,4.15,0,0,0,1.62-.29,2.88,2.88,0,0,0,1.14-.82,3.38,3.38,0,0,0,.69-1.23,5.09,5.09,0,0,0,.23-1.55v-7h2V39Z"/><path class="c" d="M135.93,21.86V39h-2V21.86Z"/><path class="c" d="M141,26.59v2h0a4.32,4.32,0,0,1,4-2.26,5.5,5.5,0,0,1,2,.34,3.38,3.38,0,0,1,1.32.94,3.44,3.44,0,0,1,.7,1.42,7.56,7.56,0,0,1,.21,1.84V39h-2V30.6a2.47,2.47,0,0,0-.67-1.82,2.51,2.51,0,0,0-1.85-.68,4.15,4.15,0,0,0-1.62.29,3,3,0,0,0-1.14.82,3.53,3.53,0,0,0-.69,1.23,5.14,5.14,0,0,0-.22,1.55v7h-2V26.59Z"/><path class="c" d="M161.22,38.21a5.62,5.62,0,0,1-3.5,1,6.39,6.39,0,0,1-2.58-.48,5.06,5.06,0,0,1-1.84-1.34,5.84,5.84,0,0,1-1.11-2.06,9.84,9.84,0,0,1-.42-2.62,7.41,7.41,0,0,1,.43-2.59,6.1,6.1,0,0,1,1.21-2,5.49,5.49,0,0,1,1.85-1.35,5.63,5.63,0,0,1,2.34-.48,5.08,5.08,0,0,1,2.75.69,5.29,5.29,0,0,1,1.75,1.74A6.88,6.88,0,0,1,163,31a9.93,9.93,0,0,1,.21,2.38h-9.29a5,5,0,0,0,.19,1.55,3.45,3.45,0,0,0,.7,1.29,3.29,3.29,0,0,0,1.22.9,4.14,4.14,0,0,0,1.75.34,3.55,3.55,0,0,0,2.13-.6A2.93,2.93,0,0,0,161,35.06h2A5,5,0,0,1,161.22,38.21Zm-.49-8a3.58,3.58,0,0,0-.74-1.12,3.43,3.43,0,0,0-1.11-.74,3.53,3.53,0,0,0-1.4-.28,3.65,3.65,0,0,0-1.43.28,3.24,3.24,0,0,0-1.09.76,3.79,3.79,0,0,0-.72,1.11,4.15,4.15,0,0,0-.31,1.36h7.13A4.23,4.23,0,0,0,160.73,30.24Z"/><path class="c" d="M167.18,26.59v2.62h0A5.55,5.55,0,0,1,169.05,27a4.59,4.59,0,0,1,2.73-.68v2.16a5.81,5.81,0,0,0-2.08.34,3.32,3.32,0,0,0-1.4,1,4.15,4.15,0,0,0-.76,1.58,8.42,8.42,0,0,0-.24,2.12V39h-2V26.59Z"/><path class="c" d="M184.31,39a2.86,2.86,0,0,1-1.46.31,1.73,1.73,0,0,1-1.26-.44,1.94,1.94,0,0,1-.47-1.45,4.9,4.9,0,0,1-2,1.45,6.79,6.79,0,0,1-4,.25,3.76,3.76,0,0,1-1.31-.6A2.9,2.9,0,0,1,173,37.4a4.23,4.23,0,0,1,0-3.32A3,3,0,0,1,174,33a4.49,4.49,0,0,1,1.34-.64c.5-.14,1-.26,1.55-.36s1.09-.19,1.59-.25a10.18,10.18,0,0,0,1.34-.24,2.23,2.23,0,0,0,.91-.46,1.12,1.12,0,0,0,.33-.87,2,2,0,0,0-.25-1.08,1.78,1.78,0,0,0-.65-.63,2.52,2.52,0,0,0-.88-.28,6.58,6.58,0,0,0-1-.08,4.31,4.31,0,0,0-2.16.5,2.08,2.08,0,0,0-.93,1.86h-2a4.38,4.38,0,0,1,.48-1.95,3.64,3.64,0,0,1,1.15-1.28,4.75,4.75,0,0,1,1.64-.71,9,9,0,0,1,2-.22,11.62,11.62,0,0,1,1.67.12,4.35,4.35,0,0,1,1.5.5,2.77,2.77,0,0,1,1.08,1A3.32,3.32,0,0,1,183,29.7v6.38a5.22,5.22,0,0,0,.08,1.05q.09.33.57.33a2.64,2.64,0,0,0,.62-.09ZM181,32.59a2.61,2.61,0,0,1-1,.42c-.41.09-.85.16-1.31.22s-.91.11-1.38.19a4.88,4.88,0,0,0-1.24.34,2.29,2.29,0,0,0-.9.68,1.87,1.87,0,0,0-.35,1.21,1.72,1.72,0,0,0,.2.85,1.67,1.67,0,0,0,.53.56,2.25,2.25,0,0,0,.76.31,4.39,4.39,0,0,0,.91.09,5,5,0,0,0,1.73-.27,3.49,3.49,0,0,0,1.17-.69,2.58,2.58,0,0,0,.67-.91,2.2,2.2,0,0,0,.22-.92Z"/><path class="c" d="M188.32,21.86v6.41h.05a3,3,0,0,1,1.58-1.5,6,6,0,0,1,2.38-.47,5.66,5.66,0,0,1,2.51.53,5.06,5.06,0,0,1,1.77,1.43,6.31,6.31,0,0,1,1.07,2.08,8.42,8.42,0,0,1,.36,2.49,8.88,8.88,0,0,1-.35,2.5,5.86,5.86,0,0,1-1.05,2.05,5.18,5.18,0,0,1-1.78,1.38,5.69,5.69,0,0,1-2.48.5,6,6,0,0,1-2.14-.4,4.29,4.29,0,0,1-1-.59,3.23,3.23,0,0,1-.83-.93h-.05V39h-2V21.86ZM195.65,31a4.48,4.48,0,0,0-.69-1.48,3.51,3.51,0,0,0-1.2-1A3.61,3.61,0,0,0,192,28.1a3.51,3.51,0,0,0-1.75.41,3.57,3.57,0,0,0-1.18,1.07,4.63,4.63,0,0,0-.66,1.5,7.52,7.52,0,0,0-.2,1.7,7.39,7.39,0,0,0,.21,1.77,4.49,4.49,0,0,0,.69,1.5,3.4,3.4,0,0,0,1.21,1,3.74,3.74,0,0,0,1.8.4,3.5,3.5,0,0,0,1.76-.41A3.11,3.11,0,0,0,195.06,36a4.71,4.71,0,0,0,.63-1.54,7.94,7.94,0,0,0,.19-1.77A6.38,6.38,0,0,0,195.65,31Z"/><path class="c" d="M200.56,24.36v-2.5h2v2.5Zm2,2.23V39h-2V26.59Z"/><path class="c" d="M207.93,21.86V39h-2V21.86Z"/><path class="c" d="M211.21,24.36v-2.5h2v2.5Zm2,2.23V39h-2V26.59Z"/><path class="c" d="M221.73,26.59v1.8h-2.48V36.1a2.16,2.16,0,0,0,.06.57.6.6,0,0,0,.23.34,1,1,0,0,0,.47.15,5.57,5.57,0,0,0,.78,0h.94V39h-1.56a7.55,7.55,0,0,1-1.36-.11,2,2,0,0,1-.91-.39,1.76,1.76,0,0,1-.52-.82,4.78,4.78,0,0,1-.17-1.39v-7.9H215.1v-1.8h2.11V22.87h2v3.72Z"/><path class="c" d="M228.85,40.66a13.42,13.42,0,0,1-.7,1.53,4.25,4.25,0,0,1-.77,1,2.5,2.5,0,0,1-.94.58,3.59,3.59,0,0,1-1.19.18,5.81,5.81,0,0,1-.72,0,3.17,3.17,0,0,1-.69-.17V41.88a2.91,2.91,0,0,0,.61.2,2.42,2.42,0,0,0,.59.09,1.75,1.75,0,0,0,1-.3,1.92,1.92,0,0,0,.64-.85l.84-2.09-4.92-12.34h2.3l3.63,10.15h0l3.48-10.15h2.16Z"/></svg>