<svg xmlns="http://www.w3.org/2000/svg" xmlns:xlink="http://www.w3.org/1999/xlink" viewBox="0 0 2730 750"><defs><style>.a{isolation:isolate;}.b{fill:url(#a);}.c{fill:url(#b);}.d{fill:url(#c);}.e{mix-blend-mode:overlay;}.f{fill:url(#d);}.g{fill:#fff;}.h{fill:#6d6e71;}.i{fill:url(#e);}.j{fill:url(#f);}.k{fill:url(#g);}.l{fill:#414042;}.m{fill:url(#h);}.n{fill:url(#i);}.o{fill:url(#j);}.p{fill:url(#k);}.q{fill:url(#l);}.r{fill:url(#m);}.s{fill:url(#n);}.t{fill:url(#o);}.u{fill:url(#p);}.v{fill:url(#q);}.w{fill:url(#r);}.x{fill:url(#s);}.y{fill:url(#t);}.z{fill:url(#u);}.aa{fill:url(#v);}.ab{fill:url(#w);}.ac{fill:url(#x);}.ad{fill:url(#y);}.ae{fill:url(#z);}.af{fill:url(#aa);}.ag{fill:url(#ab);}.ah{fill:url(#ac);}.ai{fill:url(#ad);}.aj{fill:url(#ae);}.ak{fill:url(#af);}.al{fill:url(#ag);}.am{fill:url(#ah);}.an{fill:url(#ai);}.ao{fill:url(#aj);}.ap{fill:url(#ak);}.aq{fill:url(#al);}.ar{fill:url(#am);}.as{fill:url(#an);}.at{fill:url(#ao);}.au{fill:url(#ap);}.av{fill:url(#aq);}.aw{fill:url(#ar);}.ax{fill:url(#as);}.ay{fill:url(#at);}.az{fill:url(#au);}.ba{fill:url(#av);}.bb{fill:url(#aw);}.bc{fill:url(#ax);}.bd{fill:url(#ay);}.be{fill:url(#az);}.bf{fill:url(#ba);}.bg{fill:url(#bb);}.bh{fill:url(#bc);}.bi{fill:url(#bd);}.bj{fill:url(#be);}.bk{fill:url(#bf);}.bl{fill:url(#bg);}.bm{fill:url(#bh);}.bn{fill:url(#bi);}.bo{fill:url(#bj);}.bp{fill:url(#bk);}.bq{fill:url(#bl);}.br{fill:url(#bm);}.bs{fill:url(#bn);}.bt{fill:url(#bo);}.bu{fill:url(#bp);}.bv{fill:url(#bq);}.bw{fill:url(#br);}.bx{fill:url(#bs);}.by{fill:url(#bt);}.bz{fill:url(#bu);}.ca{fill:url(#bv);}.cb{fill:#a52b00;}.cc{fill:#f74c00;}</style><linearGradient id="a" x1="317.23" y1="27.07" x2="317.23" y2="709.8" gradientUnits="userSpaceOnUse"><stop offset="0" stop-color="#616161"/><stop offset="0.26" stop-color="#707070"/><stop offset="0.48" stop-color="#757575"/><stop offset="1" stop-color="#c2c2c2"/></linearGradient><linearGradient id="b" x1="48.7" y1="376.19" x2="585.76" y2="376.19" gradientTransform="translate(0 -3.84) scale(1 1.01)" gradientUnits="userSpaceOnUse"><stop offset="0" stop-color="#e3e3e3"/><stop offset="0.03" stop-color="#cdcdcd"/><stop offset="0.09" stop-color="#aeaeae"/><stop offset="0.12" stop-color="#a3a3a3"/><stop offset="0.12" stop-color="#b3b3b3"/><stop offset="0.12" stop-color="#bdbdbd"/><stop offset="0.24" stop-color="#cdcdcd"/><stop offset="0.24" stop-color="#e3e3e3"/><stop offset="0.48" stop-color="#616161"/><stop offset="0.82" stop-color="#757575"/><stop offset="1" stop-color="#c2c2c2"/></linearGradient><linearGradient id="c" x1="176.11" y1="76.09" x2="502.48" y2="553.52" gradientUnits="userSpaceOnUse"><stop offset="0" stop-color="#4d4d4d"/><stop offset="0.18" stop-color="#393939"/><stop offset="0.52" stop-color="#1a1a1a"/><stop offset="0.8" stop-color="#070707"/><stop offset="1"/></linearGradient><linearGradient id="d" x1="151.2" y1="101.96" x2="466.64" y2="563.39" gradientUnits="userSpaceOnUse"><stop offset="0" stop-color="#fff"/><stop offset="0.11" stop-color="#f8f8f8"/><stop offset="0.26" stop-color="#e6e6e6"/><stop offset="0.44" stop-color="#c8c8c8"/><stop offset="0.64" stop-color="#9e9e9e"/><stop offset="0.86" stop-color="#686868"/><stop offset="1" stop-color="#404040"/></linearGradient><linearGradient id="e" x1="847.19" y1="1447.2" x2="852.42" y2="1484.28" gradientTransform="matrix(-0.42, 0.91, -0.91, -0.42, 1744.95, -38.23)" gradientUnits="userSpaceOnUse"><stop offset="0" stop-color="#fff"/><stop offset="0.22" stop-color="#1a1a1a"/><stop offset="0.61" stop-color="#fff"/><stop offset="0.75" stop-color="#afafaf"/><stop offset="0.98"/></linearGradient><linearGradient id="f" x1="859.2" y1="1470.93" x2="830.66" y2="1446.88" xlink:href="#e"/><linearGradient id="g" x1="849.37" y1="1443.24" x2="849.37" y2="1475.78" xlink:href="#e"/><linearGradient id="h" x1="463.38" y1="1444.91" x2="476.21" y2="1459.41" gradientTransform="translate(1510.47 -346.44) rotate(89.83)" xlink:href="#e"/><linearGradient id="i" x1="463.38" y1="1444.9" x2="476.22" y2="1459.41" gradientTransform="translate(1510.47 -346.44) rotate(89.83)" xlink:href="#e"/><linearGradient id="j" x1="746.54" y1="1362.59" x2="751.77" y2="1399.68" xlink:href="#e"/><linearGradient id="k" x1="758.55" y1="1386.32" x2="730.01" y2="1362.28" xlink:href="#e"/><linearGradient id="l" x1="748.72" y1="1358.64" x2="748.72" y2="1391.18" xlink:href="#e"/><linearGradient id="m" x1="407.37" y1="1325.94" x2="420.21" y2="1340.44" gradientTransform="translate(1510.47 -346.44) rotate(89.83)" xlink:href="#e"/><linearGradient id="n" x1="407.37" y1="1325.93" x2="420.21" y2="1340.45" gradientTransform="translate(1510.47 -346.44) rotate(89.83)" xlink:href="#e"/><linearGradient id="o" x1="690.23" y1="1239.42" x2="695.46" y2="1276.5" xlink:href="#e"/><linearGradient id="p" x1="702.24" y1="1263.15" x2="673.7" y2="1239.1" xlink:href="#e"/><linearGradient id="q" x1="692.41" y1="1235.47" x2="692.41" y2="1268.01" xlink:href="#e"/><linearGradient id="r" x1="407.78" y1="1190.5" x2="420.61" y2="1205" gradientTransform="translate(1510.47 -346.44) rotate(89.83)" xlink:href="#e"/><linearGradient id="s" x1="407.77" y1="1190.5" x2="420.62" y2="1205.01" gradientTransform="translate(1510.47 -346.44) rotate(89.83)" xlink:href="#e"/><linearGradient id="t" x1="635.64" y1="1120.02" x2="640.87" y2="1157.1" xlink:href="#e"/><linearGradient id="u" x1="647.65" y1="1143.75" x2="619.11" y2="1119.7" xlink:href="#e"/><linearGradient id="v" x1="637.82" y1="1116.06" x2="637.82" y2="1148.6" xlink:href="#e"/><linearGradient id="w" x1="408.17" y1="1059.21" x2="421.01" y2="1073.71" gradientTransform="translate(1510.47 -346.44) rotate(89.83)" xlink:href="#e"/><linearGradient id="x" x1="408.17" y1="1059.2" x2="421.01" y2="1073.71" gradientTransform="translate(1510.47 -346.44) rotate(89.83)" xlink:href="#e"/><linearGradient id="y" x1="634.03" y1="980.95" x2="639.27" y2="1018.04" xlink:href="#e"/><linearGradient id="z" x1="646.04" y1="1004.68" x2="617.51" y2="980.64" xlink:href="#e"/><linearGradient id="aa" x1="636.21" y1="977" x2="636.21" y2="1009.54" xlink:href="#e"/><linearGradient id="ab" x1="464.92" y1="932.23" x2="477.75" y2="946.73" gradientTransform="translate(1510.47 -346.44) rotate(89.83)" xlink:href="#e"/><linearGradient id="ac" x1="464.91" y1="932.23" x2="477.76" y2="946.74" gradientTransform="translate(1510.47 -346.44) rotate(89.83)" xlink:href="#e"/><linearGradient id="ad" x1="754.39" y1="924.41" x2="759.63" y2="961.49" xlink:href="#e"/><linearGradient id="ae" x1="766.4" y1="948.14" x2="737.86" y2="924.09" xlink:href="#e"/><linearGradient id="af" x1="756.57" y1="920.45" x2="756.57" y2="953" xlink:href="#e"/><linearGradient id="ag" x1="597.9" y1="931.25" x2="610.73" y2="945.75" gradientTransform="translate(1510.47 -346.44) rotate(89.83)" xlink:href="#e"/><linearGradient id="ah" x1="597.89" y1="931.24" x2="610.73" y2="945.75" gradientTransform="translate(1510.47 -346.44) rotate(89.83)" xlink:href="#e"/><linearGradient id="ai" x1="891.37" y1="880.02" x2="896.61" y2="917.1" xlink:href="#e"/><linearGradient id="aj" x1="903.38" y1="903.75" x2="874.84" y2="879.7" xlink:href="#e"/><linearGradient id="ak" x1="893.56" y1="876.06" x2="893.56" y2="908.61" xlink:href="#e"/><linearGradient id="al" x1="740.89" y1="948.26" x2="753.72" y2="962.76" gradientTransform="translate(1510.47 -346.44) rotate(89.83)" xlink:href="#e"/><linearGradient id="am" x1="740.88" y1="948.26" x2="753.72" y2="962.77" gradientTransform="translate(1510.47 -346.44) rotate(89.83)" xlink:href="#e"/><linearGradient id="an" x1="1045.11" y1="873.55" x2="1050.35" y2="910.64" xlink:href="#e"/><linearGradient id="ao" x1="1057.12" y1="897.29" x2="1028.58" y2="873.24" xlink:href="#e"/><linearGradient id="ap" x1="1047.29" y1="869.6" x2="1047.29" y2="902.14" xlink:href="#e"/><linearGradient id="aq" x1="883.23" y1="1006.73" x2="896.06" y2="1021.23" gradientTransform="translate(1510.47 -346.44) rotate(89.83)" xlink:href="#e"/><linearGradient id="ar" x1="883.22" y1="1006.73" x2="896.06" y2="1021.24" gradientTransform="translate(1510.47 -346.44) rotate(89.83)" xlink:href="#e"/><linearGradient id="as" x1="1155.28" y1="902.2" x2="1160.52" y2="939.29" xlink:href="#e"/><linearGradient id="at" x1="1167.29" y1="925.94" x2="1138.75" y2="901.89" xlink:href="#e"/><linearGradient id="au" x1="1157.47" y1="898.25" x2="1157.47" y2="930.79" xlink:href="#e"/><linearGradient id="av" x1="971.3" y1="1078.86" x2="984.13" y2="1093.36" gradientTransform="translate(1510.47 -346.44) rotate(89.83)" xlink:href="#e"/><linearGradient id="aw" x1="971.29" y1="1078.86" x2="984.13" y2="1093.37" gradientTransform="translate(1510.47 -346.44) rotate(89.83)" xlink:href="#e"/><linearGradient id="ax" x1="1248.27" y1="984.29" x2="1253.51" y2="1021.38" xlink:href="#e"/><linearGradient id="ay" x1="1260.29" y1="1008.03" x2="1231.75" y2="983.98" xlink:href="#e"/><linearGradient id="az" x1="1250.46" y1="980.34" x2="1250.46" y2="1012.88" xlink:href="#e"/><linearGradient id="ba" x1="1021.4" y1="1192.34" x2="1034.23" y2="1206.84" gradientTransform="translate(1510.47 -346.44) rotate(89.83)" xlink:href="#e"/><linearGradient id="bb" x1="1021.4" y1="1192.34" x2="1034.24" y2="1206.85" gradientTransform="translate(1510.47 -346.44) rotate(89.83)" xlink:href="#e"/><linearGradient id="bc" x1="1246.07" y1="1100.79" x2="1251.3" y2="1137.87" xlink:href="#e"/><linearGradient id="bd" x1="1258.08" y1="1124.52" x2="1229.54" y2="1100.47" xlink:href="#e"/><linearGradient id="be" x1="1248.25" y1="1096.83" x2="1248.25" y2="1129.38" xlink:href="#e"/><linearGradient id="bf" x1="970.64" y1="1297.22" x2="983.47" y2="1311.72" gradientTransform="translate(1510.47 -346.44) rotate(89.83)" xlink:href="#e"/><linearGradient id="bg" x1="970.64" y1="1297.22" x2="983.48" y2="1311.73" gradientTransform="translate(1510.47 -346.44) rotate(89.83)" xlink:href="#e"/><linearGradient id="bh" x1="1196.81" y1="1205.37" x2="1202.04" y2="1242.46" xlink:href="#e"/><linearGradient id="bi" x1="1208.82" y1="1229.1" x2="1180.28" y2="1205.06" xlink:href="#e"/><linearGradient id="bj" x1="1198.99" y1="1201.42" x2="1198.99" y2="1233.96" xlink:href="#e"/><linearGradient id="bk" x1="882.13" y1="1371.59" x2="894.96" y2="1386.09" gradientTransform="translate(1510.47 -346.44) rotate(89.83)" xlink:href="#e"/><linearGradient id="bl" x1="882.13" y1="1371.59" x2="894.97" y2="1386.1" gradientTransform="translate(1510.47 -346.44) rotate(89.83)" xlink:href="#e"/><linearGradient id="bm" x1="1089.04" y1="1312.38" x2="1094.27" y2="1349.47" xlink:href="#e"/><linearGradient id="bn" x1="1101.05" y1="1336.11" x2="1072.51" y2="1312.06" xlink:href="#e"/><linearGradient id="bo" x1="1091.22" y1="1308.43" x2="1091.22" y2="1340.97" xlink:href="#e"/><linearGradient id="bp" x1="739.46" y1="1423.68" x2="752.29" y2="1438.18" gradientTransform="translate(1510.47 -346.44) rotate(89.83)" xlink:href="#e"/><linearGradient id="bq" x1="739.46" y1="1423.67" x2="752.3" y2="1438.18" gradientTransform="translate(1510.47 -346.44) rotate(89.83)" xlink:href="#e"/><linearGradient id="br" x1="968.14" y1="1391.96" x2="973.38" y2="1429.05" xlink:href="#e"/><linearGradient id="bs" x1="980.16" y1="1415.69" x2="951.62" y2="1391.64" xlink:href="#e"/><linearGradient id="bt" x1="970.33" y1="1388.01" x2="970.33" y2="1420.55" xlink:href="#e"/><linearGradient id="bu" x1="596.35" y1="1445.36" x2="609.19" y2="1459.86" gradientTransform="translate(1510.47 -346.44) rotate(89.83)" xlink:href="#e"/><linearGradient id="bv" x1="596.35" y1="1445.36" x2="609.19" y2="1459.87" gradientTransform="translate(1510.47 -346.44) rotate(89.83)" xlink:href="#e"/></defs><title>rustsec-logo-horizontal2</title><g class="a"><path class="b" d="M175.9,47.52c-18.6,22.4-66.4,69.07-132.48,56.11-1.5,23.81-2.31,48.4-2.31,73.28,0,66.19,5.24,128.68,15.56,185.75C72.48,450.06,99.75,522.55,137.72,578c44.56,65.13,105,107.08,179.5,124.78,74.54-17.7,135-59.65,179.51-124.78,38-55.5,65.25-128,81-215.38,10.32-57.07,15.56-119.57,15.56-185.75,0-24.78-.8-49.38-2.3-73.26-43.14,8.54-77.88-8.26-99.59-24.3-8.47-6.25-22.19-18.77-33-31.83Z"/><path class="c" d="M179.77,56.52C161.7,78.3,115.21,123.67,50.94,111.09c-1.45,23.15-2.24,47.07-2.24,71.28,0,64.35,5.1,125.13,15.13,180.62,15.37,85,41.9,155.49,78.83,209.46C186,635.79,244.74,676.61,317.22,693.82c72.5-17.21,131.24-58,174.58-121.37,36.94-54,63.45-124.44,78.83-209.46,10-55.49,15.13-116.27,15.13-180.62,0-24.11-.79-48-2.25-71.26-42,8.32-75.73-8-96.86-23.63-8.23-6.09-21.57-18.26-32-31Z"/><path class="d" d="M190.47,81.31c-16.68,20.08-59.55,61.93-118.82,50.31C70.31,153,69.59,175,69.59,197.36c0,59.35,4.7,115.41,14,166.59,14.18,78.41,38.63,143.39,72.69,193.18,40,58.39,94.15,96,161,111.9,66.86-15.87,121-53.51,161-111.9,34.07-49.8,58.52-114.79,72.69-193.18,9.25-51.2,14-107.24,14-166.59,0-22.23-.72-44.28-2-65.7-38.71,7.65-69.85-7.43-89.34-21.81a191,191,0,0,1-29.56-28.54Z"/><g class="e"><path class="f" d="M449.59,103.06a185.85,185.85,0,0,1-13.25-14.25H191.66c-16.11,19.39-57.49,59.79-114.72,48.57-1.29,20.62-2,41.92-2,63.46,0,57.31,4.53,111.42,13.46,160.83,13.69,75.71,37.3,138.44,70.18,186.5q26.21,38.28,60.73,64.12C213.47,469.17,234,203.79,449.59,103.06Z"/></g><path class="g" d="M101.32,369.05c-8.93-49.42-13.46-103.53-13.46-160.84,0-21.54.69-42.84,2-63.46,57.23,11.22,98.61-29.18,114.72-48.57,2.32,0,233.85-4.87,231.78-7.37H191.66c-16.11,19.39-57.49,59.79-114.72,48.57-1.29,20.62-2,41.92-2,63.46,0,57.31,4.53,111.42,13.46,160.83,13.69,75.71,37.3,138.44,70.18,186.5q26.21,38.28,60.73,64.12h0C201.66,597.1,140.43,557.78,101.32,369.05Z"/><path class="h" d="M57.75,134.3a9,9,0,1,1,11.94-4.45A9,9,0,0,1,57.75,134.3Z"/><path class="i" d="M57.92,133.94a8.62,8.62,0,1,1,11.42-4.25A8.6,8.6,0,0,1,57.92,133.94Z"/><path class="j" d="M58.56,132.54a7.07,7.07,0,1,1,9.37-3.49A7.08,7.08,0,0,1,58.56,132.54Z"/><path class="k" d="M58.73,132.16a6.66,6.66,0,1,1,8.83-3.28A6.66,6.66,0,0,1,58.73,132.16Z"/><path class="l" d="M61.91,131.23a44.44,44.44,0,0,0,.3-5.1,45.69,45.69,0,0,0-.33-5.1l0,1,0-1a47.27,47.27,0,0,0-.3,5.1,45.69,45.69,0,0,0,.33,5.1v-1Z"/><path class="l" d="M67,126.1a44.23,44.23,0,0,0-5.1-.3,42.76,42.76,0,0,0-5.09.33h.95l-.95,0a45.47,45.47,0,0,0,5.09.31,46.83,46.83,0,0,0,5.1-.34H66Z"/><path class="m" d="M61.74,131a47.27,47.27,0,0,0,.3-5.1,45.38,45.38,0,0,0-.33-5.09l0,1,0-1a47,47,0,0,0-.3,5.09,45.69,45.69,0,0,0,.33,5.1l0-.95Z"/><path class="n" d="M66.8,125.91a44.16,44.16,0,0,0-5.09-.3,45.44,45.44,0,0,0-5.1.33h1l-1,0a40.72,40.72,0,0,0,10.19,0l-1,0Z"/><path class="h" d="M176.55,77.93a9,9,0,1,1,11.94-4.44A9,9,0,0,1,176.55,77.93Z"/><path class="o" d="M176.72,77.58a8.62,8.62,0,1,1,11.42-4.26A8.62,8.62,0,0,1,176.72,77.58Z"/><path class="p" d="M177.36,76.18a7.07,7.07,0,1,1,9.37-3.5A7.09,7.09,0,0,1,177.36,76.18Z"/><path class="q" d="M177.53,75.8a6.66,6.66,0,1,1,8.83-3.29A6.66,6.66,0,0,1,177.53,75.8Z"/><path class="l" d="M180.71,74.87a43.19,43.19,0,0,0,.29-5.1,44.36,44.36,0,0,0-.32-5.1l0,1,0-1a47.27,47.27,0,0,0-.3,5.1,45.69,45.69,0,0,0,.33,5.1v-1Z"/><path class="l" d="M185.77,69.73a47,47,0,0,0-5.1-.3,45.38,45.38,0,0,0-5.09.33l.95,0-.95,0a44.16,44.16,0,0,0,5.09.3,45.44,45.44,0,0,0,5.1-.33h-1Z"/><path class="r" d="M180.54,74.68a47.27,47.27,0,0,0,.3-5.1,45.44,45.44,0,0,0-.33-5.1l0,1,0-1a47.27,47.27,0,0,0-.3,5.1,45.38,45.38,0,0,0,.33,5.09l0-1Z"/><path class="s" d="M185.6,69.54a42,42,0,0,0-10.19,0h1l-1,0a45.54,45.54,0,0,0,5.1.31,46.77,46.77,0,0,0,5.09-.34h-.95Z"/><path class="h" d="M312,77.93a9,9,0,1,1,11.94-4.44A9,9,0,0,1,312,77.93Z"/><path class="t" d="M312.16,77.58a8.62,8.62,0,1,1,11.42-4.26A8.62,8.62,0,0,1,312.16,77.58Z"/><path class="u" d="M312.8,76.18a7.07,7.07,0,1,1,9.37-3.5A7.09,7.09,0,0,1,312.8,76.18Z"/><path class="v" d="M313,75.8a6.66,6.66,0,1,1,8.83-3.29A6.66,6.66,0,0,1,313,75.8Z"/><path class="l" d="M316.15,74.87a43.19,43.19,0,0,0,.29-5.1,44.36,44.36,0,0,0-.32-5.1l0,1,0-1a47.27,47.27,0,0,0-.3,5.1,45.69,45.69,0,0,0,.33,5.1v-1Z"/><path class="l" d="M321.21,69.73a47,47,0,0,0-5.1-.3,45.38,45.38,0,0,0-5.09.33l1,0-1,0a44.16,44.16,0,0,0,5.09.3,45.44,45.44,0,0,0,5.1-.33h-.95Z"/><path class="w" d="M316,74.68a47.27,47.27,0,0,0,.3-5.1,45.44,45.44,0,0,0-.33-5.1l0,1,0-1a47.27,47.27,0,0,0-.3,5.1,45.38,45.38,0,0,0,.33,5.09l0-1Z"/><path class="x" d="M321,69.54a42,42,0,0,0-10.19,0h.95l-.95,0a45.54,45.54,0,0,0,5.1.31,46.77,46.77,0,0,0,5.09-.34h-1Z"/><path class="h" d="M443.29,77.93a9,9,0,1,1,11.93-4.44A9,9,0,0,1,443.29,77.93Z"/><path class="y" d="M443.45,77.58a8.62,8.62,0,1,1,11.42-4.26A8.6,8.6,0,0,1,443.45,77.58Z"/><path class="z" d="M444.09,76.18a7.08,7.08,0,1,1,9.37-3.5A7.09,7.09,0,0,1,444.09,76.18Z"/><path class="aa" d="M444.27,75.8a6.66,6.66,0,1,1,8.82-3.29A6.65,6.65,0,0,1,444.27,75.8Z"/><path class="l" d="M447.44,74.87a44.44,44.44,0,0,0,.3-5.1,45.69,45.69,0,0,0-.33-5.1v1l0-1a45.77,45.77,0,0,0-.31,5.1,47.09,47.09,0,0,0,.34,5.1v-1Z"/><path class="l" d="M452.5,69.73a47,47,0,0,0-5.09-.3,45.44,45.44,0,0,0-5.1.33l1,0-1,0a44.44,44.44,0,0,0,5.1.3,45.38,45.38,0,0,0,5.09-.33h-.95Z"/><path class="ab" d="M447.27,74.68a44.44,44.44,0,0,0,.3-5.1,42.82,42.82,0,0,0-.33-5.1v1l0-1a45.86,45.86,0,0,0-.29,5.1,42.76,42.76,0,0,0,.33,5.09v-1Z"/><path class="ac" d="M452.34,69.54a42.11,42.11,0,0,0-10.2,0h1l-1,0a45.77,45.77,0,0,0,5.1.31,47.09,47.09,0,0,0,5.1-.34h-1Z"/><path class="h" d="M570.44,134.3a9,9,0,1,1,11.93-4.45A9,9,0,0,1,570.44,134.3Z"/><path class="ad" d="M570.6,133.94A8.62,8.62,0,1,1,582,129.69,8.6,8.6,0,0,1,570.6,133.94Z"/><path class="ae" d="M571.24,132.54a7.07,7.07,0,1,1,9.37-3.49A7.08,7.08,0,0,1,571.24,132.54Z"/><path class="af" d="M571.42,132.16a6.66,6.66,0,1,1,8.82-3.28A6.65,6.65,0,0,1,571.42,132.16Z"/><path class="l" d="M574.59,131.23a44.44,44.44,0,0,0,.3-5.1,45.69,45.69,0,0,0-.33-5.1l0,1,0-1a47.27,47.27,0,0,0-.3,5.1,45.69,45.69,0,0,0,.33,5.1l0-1Z"/><path class="l" d="M579.65,126.1a44.23,44.23,0,0,0-5.1-.3,42.76,42.76,0,0,0-5.09.33h.95l-.95,0a45.47,45.47,0,0,0,5.09.31,46.83,46.83,0,0,0,5.1-.34h-.95Z"/><path class="ag" d="M574.42,131a47.27,47.27,0,0,0,.3-5.1,45.38,45.38,0,0,0-.33-5.09l0,1,0-1a45.56,45.56,0,0,0-.29,5.09,44.36,44.36,0,0,0,.32,5.1l0-.95Z"/><path class="ah" d="M579.48,125.91a44.16,44.16,0,0,0-5.09-.3,45.44,45.44,0,0,0-5.1.33h1l-1,0a40.72,40.72,0,0,0,10.19,0l-1,0Z"/><path class="h" d="M571.82,267.27a9,9,0,1,1,11.93-4.44A9,9,0,0,1,571.82,267.27Z"/><path class="ai" d="M572,266.92a8.62,8.62,0,1,1,11.42-4.26A8.6,8.6,0,0,1,572,266.92Z"/><path class="aj" d="M572.62,265.52A7.08,7.08,0,1,1,582,262,7.09,7.09,0,0,1,572.62,265.52Z"/><path class="ak" d="M572.8,265.14a6.66,6.66,0,1,1,8.82-3.29A6.65,6.65,0,0,1,572.8,265.14Z"/><path class="l" d="M576,264.21a44.44,44.44,0,0,0,.3-5.1,45.44,45.44,0,0,0-.33-5.1v1l0-1a45.54,45.54,0,0,0-.31,5.1,47.09,47.09,0,0,0,.34,5.1v-1Z"/><path class="l" d="M581,259.07a47,47,0,0,0-5.09-.3,45.44,45.44,0,0,0-5.1.33l1,0-1,0a44.44,44.44,0,0,0,5.1.3,45.38,45.38,0,0,0,5.09-.33h-.95Z"/><path class="al" d="M575.8,264a44.51,44.51,0,0,0,.3-5.11,42.76,42.76,0,0,0-.33-5.09v1l0-1a45.79,45.79,0,0,0-.29,5.09,42.82,42.82,0,0,0,.33,5.1v-.95Z"/><path class="am" d="M580.87,258.88a45.86,45.86,0,0,0-5.1-.29,47.18,47.18,0,0,0-5.1.32l1,0-1,0a44.44,44.44,0,0,0,5.1.3,45.69,45.69,0,0,0,5.1-.33h-1Z"/><path class="h" d="M555.23,410.31a9,9,0,1,1,11.94-4.44A9,9,0,0,1,555.23,410.31Z"/><path class="an" d="M555.39,410a8.62,8.62,0,1,1,11.43-4.26A8.62,8.62,0,0,1,555.39,410Z"/><path class="ao" d="M556,408.56a7.07,7.07,0,1,1,9.37-3.49A7.09,7.09,0,0,1,556,408.56Z"/><path class="ap" d="M556.21,408.18a6.66,6.66,0,1,1,8.82-3.29A6.66,6.66,0,0,1,556.21,408.18Z"/><path class="l" d="M559.38,407.25a44.44,44.44,0,0,0,.3-5.1,43,43,0,0,0-.33-5.1V398l0-.95a44.44,44.44,0,0,0-.3,5.1,45.69,45.69,0,0,0,.33,5.1v-1Z"/><path class="l" d="M564.45,402.12a42,42,0,0,0-10.19,0l1,0-1,0a44.16,44.16,0,0,0,5.09.3,45.44,45.44,0,0,0,5.1-.33h-1Z"/><path class="aq" d="M559.22,407.06a47.27,47.27,0,0,0,.3-5.1,44.05,44.05,0,0,0-.34-5.1v1l0-1a44.44,44.44,0,0,0-.3,5.1,45.69,45.69,0,0,0,.33,5.1l0-1Z"/><path class="ar" d="M564.28,401.92a42,42,0,0,0-10.19,0H555l-.95,0a45.47,45.47,0,0,0,5.09.31,44.05,44.05,0,0,0,5.1-.34h-.95Z"/><path class="h" d="M497.19,552.83a9,9,0,1,1,11.93-4.45A9,9,0,0,1,497.19,552.83Z"/><path class="as" d="M497.35,552.47a8.62,8.62,0,1,1,11.42-4.25A8.6,8.6,0,0,1,497.35,552.47Z"/><path class="at" d="M498,551.07a7.07,7.07,0,1,1,9.37-3.49A7.07,7.07,0,0,1,498,551.07Z"/><path class="au" d="M498.17,550.69a6.66,6.66,0,1,1,8.82-3.28A6.65,6.65,0,0,1,498.17,550.69Z"/><path class="l" d="M501.34,549.76a44.44,44.44,0,0,0,.3-5.1,45.38,45.38,0,0,0-.33-5.09v.95l0-.95a45.47,45.47,0,0,0-.31,5.09,47.09,47.09,0,0,0,.34,5.1v-1Z"/><path class="l" d="M506.4,544.63a44.16,44.16,0,0,0-5.09-.3,45.44,45.44,0,0,0-5.1.33h1l-1,0a45.54,45.54,0,0,0,5.1.31,46.77,46.77,0,0,0,5.09-.34h-.95Z"/><path class="av" d="M501.17,549.57a44.23,44.23,0,0,0,.3-5.1,42.76,42.76,0,0,0-.33-5.09v1l0-1a45.56,45.56,0,0,0-.29,5.09,42.82,42.82,0,0,0,.33,5.1v-1Z"/><path class="aw" d="M506.24,544.44a47.27,47.27,0,0,0-5.1-.3,45.44,45.44,0,0,0-5.1.33h1l-1,0a47.27,47.27,0,0,0,5.1.3,45.69,45.69,0,0,0,5.1-.33l-1,0Z"/><path class="h" d="M425.32,641.11a9,9,0,1,1,11.94-4.44A9,9,0,0,1,425.32,641.11Z"/><path class="ax" d="M425.48,640.76a8.62,8.62,0,1,1,11.42-4.26A8.62,8.62,0,0,1,425.48,640.76Z"/><path class="ay" d="M426.13,639.36a7.07,7.07,0,1,1,9.37-3.49A7.09,7.09,0,0,1,426.13,639.36Z"/><path class="az" d="M426.3,639a6.66,6.66,0,1,1,8.82-3.29A6.67,6.67,0,0,1,426.3,639Z"/><path class="l" d="M429.47,638.05a44.44,44.44,0,0,0,.3-5.1,43,43,0,0,0-.33-5.1v1l0-1a44.44,44.44,0,0,0-.3,5.1,45.69,45.69,0,0,0,.33,5.1v-1Z"/><path class="l" d="M434.54,632.92a44.44,44.44,0,0,0-5.1-.3,43,43,0,0,0-5.1.33h1l-1,0a44.44,44.44,0,0,0,5.1.3,45.69,45.69,0,0,0,5.1-.33h-1Z"/><path class="ba" d="M429.31,637.86a47.27,47.27,0,0,0,.3-5.1,44.29,44.29,0,0,0-.34-5.1v1l0-1a44.44,44.44,0,0,0-.3,5.1,45.69,45.69,0,0,0,.33,5.1v-1Z"/><path class="bb" d="M434.37,632.72a42.11,42.11,0,0,0-10.2,0h1l-1,0a40.8,40.8,0,0,0,10.2,0l-1,0Z"/><path class="h" d="M312,691.56a9,9,0,1,1,11.94-4.44A9,9,0,0,1,312,691.56Z"/><path class="bc" d="M312.16,691.21A8.62,8.62,0,1,1,323.58,687,8.63,8.63,0,0,1,312.16,691.21Z"/><path class="bd" d="M312.8,689.8a7.07,7.07,0,1,1,9.37-3.49A7.07,7.07,0,0,1,312.8,689.8Z"/><path class="be" d="M313,689.43a6.66,6.66,0,1,1,8.83-3.29A6.66,6.66,0,0,1,313,689.43Z"/><path class="l" d="M316.15,688.49a43.12,43.12,0,0,0,.29-5.09,44.14,44.14,0,0,0-.32-5.1l0,1,0-1a47,47,0,0,0-.3,5.1,45.38,45.38,0,0,0,.33,5.09v-1Z"/><path class="l" d="M321.21,683.36a47,47,0,0,0-5.1-.3,45.38,45.38,0,0,0-5.09.33l1,0h-1a42.84,42.84,0,0,0,5.09.31,48.41,48.41,0,0,0,5.1-.33l-.95,0Z"/><path class="bf" d="M316,688.3a47,47,0,0,0,.3-5.1,45.38,45.38,0,0,0-.33-5.09l0,1,0-1a47,47,0,0,0-.3,5.09,45.44,45.44,0,0,0,.33,5.1l0-.95Z"/><path class="bg" d="M321,683.17a47,47,0,0,0-5.09-.3,45.44,45.44,0,0,0-5.1.33l.95,0-.95,0a44.23,44.23,0,0,0,5.1.3,45.38,45.38,0,0,0,5.09-.33h-1Z"/><path class="h" d="M207,641.11a9,9,0,1,1,11.93-4.44A9,9,0,0,1,207,641.11Z"/><path class="bh" d="M207.12,640.76a8.62,8.62,0,1,1,11.42-4.26A8.61,8.61,0,0,1,207.12,640.76Z"/><path class="bi" d="M207.77,639.36a7.07,7.07,0,1,1,9.37-3.49A7.07,7.07,0,0,1,207.77,639.36Z"/><path class="bj" d="M207.94,639a6.66,6.66,0,1,1,8.82-3.29A6.66,6.66,0,0,1,207.94,639Z"/><path class="l" d="M211.11,638.05a44.44,44.44,0,0,0,.3-5.1,45.69,45.69,0,0,0-.33-5.1v1l0-1a44.44,44.44,0,0,0-.3,5.1,45.69,45.69,0,0,0,.33,5.1v-1Z"/><path class="l" d="M216.17,632.92a44.16,44.16,0,0,0-5.09-.3,42.82,42.82,0,0,0-5.1.33h1l-1,0a44.44,44.44,0,0,0,5.1.3,45.38,45.38,0,0,0,5.09-.33h-.95Z"/><path class="bk" d="M211,637.86a45.86,45.86,0,0,0,.29-5.1,43,43,0,0,0-.33-5.1v1l0-1a44.44,44.44,0,0,0-.3,5.1,43,43,0,0,0,.33,5.1v-1Z"/><path class="bl" d="M216,632.72a42.11,42.11,0,0,0-10.2,0h1l-1,0a40.8,40.8,0,0,0,10.2,0l-1,0Z"/><path class="h" d="M132.32,552.83a9,9,0,1,1,11.94-4.45A9,9,0,0,1,132.32,552.83Z"/><path class="bm" d="M132.49,552.47a8.61,8.61,0,1,1,11.42-4.25A8.61,8.61,0,0,1,132.49,552.47Z"/><path class="bn" d="M133.13,551.07a7.07,7.07,0,1,1,9.37-3.49A7.07,7.07,0,0,1,133.13,551.07Z"/><path class="bo" d="M133.3,550.69a6.66,6.66,0,1,1,8.82-3.28A6.66,6.66,0,0,1,133.3,550.69Z"/><path class="l" d="M136.47,549.76a41.93,41.93,0,0,0,.3-5.1,42.76,42.76,0,0,0-.33-5.09v.95l0-.95a44.16,44.16,0,0,0-.3,5.09,45.69,45.69,0,0,0,.33,5.1v-1Z"/><path class="l" d="M141.54,544.63a44.23,44.23,0,0,0-5.1-.3,45.38,45.38,0,0,0-5.09.33h1l-1,0a45.47,45.47,0,0,0,5.09.31,46.83,46.83,0,0,0,5.1-.34h-.95Z"/><path class="bp" d="M136.31,549.57a47,47,0,0,0,.3-5.1,44,44,0,0,0-.34-5.09v1l0-1a44.16,44.16,0,0,0-.3,5.09,45.44,45.44,0,0,0,.33,5.1l0-1Z"/><path class="bq" d="M141.37,544.44a47,47,0,0,0-5.1-.3,45.38,45.38,0,0,0-5.09.33h.95l-.95,0a47,47,0,0,0,5.09.3,45.44,45.44,0,0,0,5.1-.33l-1,0Z"/><path class="h" d="M79.81,410.31a9,9,0,1,1,11.94-4.44A9,9,0,0,1,79.81,410.31Z"/><path class="br" d="M80,410a8.62,8.62,0,1,1,11.42-4.26A8.62,8.62,0,0,1,80,410Z"/><path class="bs" d="M80.62,408.56A7.07,7.07,0,1,1,90,405.07,7.09,7.09,0,0,1,80.62,408.56Z"/><path class="bt" d="M80.79,408.18a6.66,6.66,0,1,1,8.82-3.29A6.67,6.67,0,0,1,80.79,408.18Z"/><path class="l" d="M84,407.25a44.44,44.44,0,0,0,.3-5.1,43,43,0,0,0-.33-5.1V398l0-.95a44.44,44.44,0,0,0-.3,5.1,45.69,45.69,0,0,0,.33,5.1v-1Z"/><path class="l" d="M89,402.12a42.11,42.11,0,0,0-10.2,0l1,0-1,0a44.44,44.44,0,0,0,5.1.3,45.69,45.69,0,0,0,5.1-.33h-1Z"/><path class="bu" d="M83.8,407.06a45.86,45.86,0,0,0,.29-5.1,42.82,42.82,0,0,0-.33-5.1v1l0-1a44.44,44.44,0,0,0-.3,5.1,45.69,45.69,0,0,0,.33,5.1v-1Z"/><path class="bv" d="M88.86,401.92a42.11,42.11,0,0,0-10.2,0h1l-1,0a45.77,45.77,0,0,0,5.1.31,44.29,44.29,0,0,0,5.1-.34h-1Z"/><path class="h" d="M57.7,267.27a9,9,0,1,1,11.93-4.44A9,9,0,0,1,57.7,267.27Z"/><path class="bw" d="M57.86,266.92a8.62,8.62,0,1,1,11.42-4.26A8.6,8.6,0,0,1,57.86,266.92Z"/><path class="bx" d="M58.51,265.52a7.07,7.07,0,1,1,9.36-3.5A7.08,7.08,0,0,1,58.51,265.52Z"/><path class="by" d="M58.68,265.14a6.66,6.66,0,1,1,8.82-3.29A6.66,6.66,0,0,1,58.68,265.14Z"/><path class="l" d="M61.85,264.21a44.44,44.44,0,0,0,.3-5.1,45.44,45.44,0,0,0-.33-5.1v1l0-1a44.23,44.23,0,0,0-.3,5.1,45.69,45.69,0,0,0,.33,5.1v-1Z"/><path class="l" d="M66.91,259.07a47,47,0,0,0-5.09-.3,45.44,45.44,0,0,0-5.1.33l1,0-1,0a44.44,44.44,0,0,0,5.1.3,45.38,45.38,0,0,0,5.09-.33H66Z"/><path class="bz" d="M61.68,264a44.51,44.51,0,0,0,.3-5.11,42.76,42.76,0,0,0-.33-5.09v1l0-1a45.79,45.79,0,0,0-.29,5.09,42.82,42.82,0,0,0,.33,5.1v-.95Z"/><path class="ca" d="M66.75,258.88a45.86,45.86,0,0,0-5.1-.29,47.18,47.18,0,0,0-5.1.32l1,0-1,0a44.44,44.44,0,0,0,5.1.3,45.69,45.69,0,0,0,5.1-.33h-1Z"/><path class="cb" d="M311.19,303.88c-44,0-83.95,5.29-113.54,13.91v73.62c29.59,8.61,69.55,13.9,113.54,13.9,50.34,0,95.42-6.93,125.69-17.84V321.73C406.61,310.81,361.53,303.88,311.19,303.88Z"/><path class="cb" d="M482.22,363.7,477.07,353c0-.41,0-.82,0-1.22,0-12.11-12.59-23.27-33.77-32.21V384c9.88-4.17,17.9-8.82,23.64-13.83-1.69,6.79-7.46,20.52-12.07,30.17-7.56,13.81-10.3,25.84-10,26.43.22.38,2.81-3.6,6.61-10,8.86-12.62,25.64-36.71,29-42.85C484.36,366.91,482.22,363.7,482.22,363.7Z"/><path class="cb" d="M148.55,352.5a18.48,18.48,0,0,0,1.37,6.89l-3.08,5.49s-2.48,3.21,1.88,10c3.84,6,23.09,29.34,33.24,41.58,4.37,6.27,7.32,10.14,7.58,9.76.41-.59-2.71-12.37-11.37-25.81a242.08,242.08,0,0,1-11.77-23.84c8.09,5.12,18.67,9.77,31.25,13.76V314.69C167.34,324.32,148.55,337.71,148.55,352.5Z"/><path class="cc" d="M512.16,363.64l-33.89-25c-.32-1.11-.64-2.22-1-3.32l11.14-16.13a6,6,0,0,0,.62-5.64,5.66,5.66,0,0,0-4.26-3.53L466,306.86c-.73-1.49-1.49-2.95-2.26-4.41l7.91-18.1a6,6,0,0,0-.44-5.67,5.48,5.48,0,0,0-4.84-2.58l-19.1.69q-1.49-1.94-3-3.82l4.39-19.4a6,6,0,0,0-1.49-5.47,5.42,5.42,0,0,0-5.24-1.55l-18.6,4.57c-1.21-1.06-2.43-2.12-3.67-3.15l.67-19.92a5.88,5.88,0,0,0-2.49-5.05,5.36,5.36,0,0,0-5.42-.46L395,230.79c-1.4-.8-2.8-1.59-4.23-2.36l-3.06-19.64a5.81,5.81,0,0,0-3.39-4.45,5.4,5.4,0,0,0-5.4.66l-15.48,11.61c-1.52-.5-3.05-1-4.6-1.45l-6.67-18.62a5.63,5.63,0,0,0-4.15-3.68,5.47,5.47,0,0,0-5.18,1.74l-13,14.57q-2.37-.27-4.74-.48l-10-16.95a5.48,5.48,0,0,0-9.51,0l-10.06,16.95q-2.39.21-4.74.48l-13-14.57a5.47,5.47,0,0,0-5.18-1.74,5.62,5.62,0,0,0-4.14,3.68l-6.68,18.62c-1.55.46-3.08,1-4.6,1.45L241.62,205a5.41,5.41,0,0,0-5.41-.66,5.84,5.84,0,0,0-3.38,4.45l-3.07,19.64c-1.42.77-2.82,1.56-4.22,2.36l-17.36-8.25a5.38,5.38,0,0,0-5.43.46,5.9,5.9,0,0,0-2.48,5.05l.67,19.92c-1.24,1-2.46,2.09-3.67,3.15l-18.61-4.57a5.45,5.45,0,0,0-5.24,1.55,6,6,0,0,0-1.49,5.47l4.38,19.4c-1,1.26-2,2.53-3,3.82l-19.11-.69a5.53,5.53,0,0,0-4.84,2.58,6,6,0,0,0-.44,5.67l7.91,18.1c-.77,1.46-1.53,2.92-2.27,4.41l-18.82,3.19a5.67,5.67,0,0,0-4.27,3.53,6.05,6.05,0,0,0,.63,5.64l11.14,16.13c-.09.28-.17.57-.25.86L111.5,369.65s-4.82,3.78,2.2,12.66c6.2,7.84,38,38.92,54.8,55.2,7.09,8.26,11.95,13.38,12.46,12.94.8-.71-3.41-15.74-17.38-33.39-10.77-15.83-24.75-40.17-21.47-43a32.12,32.12,0,0,1,11.21-8.14c.27.22-.29-.21,0,0h0s157.88,72.83,304.32,1.23h0c16.73-3,26.86,6,26.86,6,3.49,2-5.55,27.05-13,43.62-10.11,18.82-11.6,33.5-10.74,34,.54.33,4.22-5.27,9.47-14.19,12.95-18.05,37.44-52.45,41.92-60.81C517.24,366.29,512.16,363.64,512.16,363.64Z"/><path d="M257.85,410.37c-.6-.52-.92-.82-.92-.82l51.72-4.24c-42.19-55.65-76-11.32-79.58-6.36v11.42Z"/><path d="M365.53,409.77c.6-.52.92-.82.92-.82l-49.7-3.64c42.21-57.93,74-11.92,77.56-7v11.42Z"/><path class="cc" d="M445,354.52s-5.65,22.51-40.8,46.16L394.32,403s-31.88-58.14-77.05,7.38c0,0,14.07-8.2,51.81,1.78,0,0-17.36,26.58-52.33,25.76,0,0,33.52,40.21,84.51-17.87,0,0,53.92-20.85,58.29-65.52Z"/><path d="M340.23,325.68s15.78-17.27,31.56,0c0,0,12.4,23,0,34.56,0,0-20.29,16.12-31.56,0C340.23,360.24,326.71,347.57,340.23,325.68Z"/><path class="g" d="M358.5,332.09c0,6.73-4,12.18-8.86,12.18s-8.85-5.45-8.85-12.18,4-12.18,8.85-12.18S358.5,325.37,358.5,332.09Z"/><path d="M269.81,321s27.07-12,34.46,14.76c0,0,7.73,31.18-22.23,32.93C282,368.66,243.83,361.31,269.81,321Z"/><path class="g" d="M283.41,332.53c0,6.94-4.09,12.57-9.14,12.57s-9.13-5.63-9.13-12.57S269.23,320,274.27,320,283.41,325.6,283.41,332.53Z"/><path class="cc" d="M254.61,414.57c33.32-4.2,52.57-4.59,52.57-4.59-44.57-58.81-80.74-5.57-80.74-5.57-9.07-3.24-18.31-15.82-25.21-27.42l-27.66-8.2c31.88,54.11,55.62,54.94,55.62,54.94C278.61,487.07,302,436.17,302,436.17,274.27,433,254.61,414.57,254.61,414.57Z"/><path class="g" d="M837.76,545.48H712.48V508h8.64q20.64,0,20.64-25.44V144.68q0-25.44-20.16-25.44h-9.12V81.8H837.76Zm178.56-.48q-53.28,0-52.8.48-33.12,0-53.28-21.12-16.8-17.28-16.8-36.48V365q0-18.72-10.8-31.2t-28.56-12.48H845V281h9.12q13,0,22.32-11.52t7.44-30.24V164.36q1.92-18.72-7.44-31.92t-22.32-13.2H845V81.8h48.48q36.46,0,58.08,23Q976,131.73,976,185v33.6q0,40.32-12,59-10.08,14.88-33.6,20.64,52.32,21.6,52.32,75.36V475.88q0,31.22,27.84,31.2h5.76Z"/><path class="g" d="M1169.92,551.72q-61,0-87.84-28.59t-26.88-91.55l.48-286.87q0-25.47-20.16-25.47h-9.12V81.8h125.28V478.69q0,16.33,5.52,26.19t12.72,9.84Zm151.2-432.48h-8.5q-20.31,0-20.3,25.44v287q0,62.89-26.88,91.44t-87.84,28.56l.48-37.44q7.2,0,12.72-9.84t5.52-26.16V81.8h124.8Z"/><path class="g" d="M1565,432.68l.48.48q0,68.16-29.28,95-25.44,23.52-84,23.52V509q7.68,0,15.6-10.06t7.92-25.9q0-24.93-.48-24.93,0-37.89-19.2-60.9l-94.08-113.15q-25.44-30.69-25.44-83.91,0-118.43,113.28-118.43v41.76q-7.68,0-14.88,9.12-8.64,11-8.64,26.88v25q0,36.48,19.2,59.52l94.08,112.8Q1565,377.48,1565,432.68Zm-120,119q-103.68,0-103.68-77.51V402h89.28v79.92q0,11.43,4.32,19.27T1445,509ZM1552,220h-80.16V141.1q0-11.49-4.32-19.38T1457,113.83V71.72q42.72,0,68.88,22.25T1552,149.23Z"/><path class="g" d="M1659,119.24q-12.65,0-24.56,13.44a46.18,46.18,0,0,0-11.92,31.68v70.08H1577V81.8H1659ZM1791,545H1636.47V508h8.64q20.64,0,20.64-25.44V81.8h96l-.48,400.32q0,25.92,20.64,25.92H1791Zm60.48-310.56h-46.08V164.36a46.56,46.56,0,0,0-11.76-31.68q-11.76-13.43-24.24-13.44V81.8h82.08Z"/><path class="g" d="M2097.26,432.68l.48.48q0,68.16-29.28,95-25.44,23.52-84,23.52V509q7.68,0,15.6-10.06T2008,473q0-24.93-.48-24.93,0-37.89-19.2-60.9l-94.08-113.15q-25.44-30.69-25.44-83.91,0-118.43,113.28-118.43v41.76q-7.68,0-14.88,9.12-8.64,11-8.64,26.88v25q0,36.48,19.2,59.52l94.08,112.8Q2097.26,377.48,2097.26,432.68Zm-120,119q-103.68,0-103.68-77.51V402h89.28v79.92q0,11.43,4.32,19.27t10.08,7.85ZM2084.3,220h-80.16V141.1q0-11.49-4.32-19.38t-10.56-7.89V71.72q42.72,0,68.88,22.25t26.16,55.26Z"/><path class="g" d="M2234.54,545H2109.26V508h8.64q20.63,0,20.64-25.44V144.68q0-25.44-20.16-25.44h-9.12V81.8h125.28Zm104.64-336.48h-45.6V164.36q0-17.76-15.36-32.16-13.93-13-27.36-13h-9.12V81.8h97.44Zm-17.76,137.76h-79.68V264.2h79.68ZM2339.18,545h-97.44V508h9.12q13.42,0,28.08-13.68t14.64-31.44V401h45.6Z"/><path class="g" d="M2494.7,551.24q-122.88,0-122.88-153.12V225.32q0-86.4,46.08-126.24,32.14-27.36,76.8-27.36l-.48,37q-8.17,0-16.32,9.12-10.08,11.06-10.08,26.88v333.6a37.44,37.44,0,0,0,10.26,26.4q8.3,9.6,16.62,9.6Zm112.8-336h-82.56V145.16a43.49,43.49,0,0,0-8.64-25.92q-7.68-10.55-13.92-10.56l-.48-37q47,0,77.28,25.44,28.32,24.48,28.32,59Zm0,251.52q0,34.56-28.32,59-30.24,25.46-76.8,25.44l-.48-37.44q6.72,0,14.88-11.28a42.71,42.71,0,0,0,8.16-25.68V384.68l82.56.48Z"/><path class="g" d="M740.67,590H715.78V581.3h59.7V590h-25v70h-9.8Z"/><path class="g" d="M826.69,622.48c0-10-5.19-13-12.86-13-6.84,0-13.45,4.25-16.87,8.85V660h-8.85V581.3H797v30c4-4.72,11.8-9.68,20.41-9.68,11.92,0,18.17,5.78,18.17,18.17V660h-8.85Z"/><path class="g" d="M878,601.59c17.23,0,27.38,13.45,27.38,30.56v2.25H859.26c.71,10.73,8.26,19.7,20.53,19.7a24.91,24.91,0,0,0,17.58-7.2l4.25,5.78c-5.66,5.67-13.33,8.74-22.65,8.74-16.88,0-29-12.16-29-30C849.94,614.93,861.74,601.59,878,601.59Zm-18.76,26.32h37.41c-.12-8.5-5.79-19-18.77-19C865.75,608.91,859.73,619.17,859.26,627.91Z"/><path class="g" d="M976,628.73H960.27V660h-9.8V581.3H982.1c14.39,0,24.66,9.2,24.66,23.71,0,14.16-9.68,22-20.42,22.9L1007.58,660H996Zm5-38.7H960.27v30.09h20.65c9.32,0,15.69-6.26,15.69-15.11S990.24,590,980.92,590Z"/><path class="g" d="M1060.33,652c-4.37,4.95-11.8,9.44-20.3,9.44-11.91,0-18.17-5.79-18.17-18.18V603h8.85v37.52c0,10,5.08,13,12.75,13a21.81,21.81,0,0,0,16.87-8.61V603h8.85v57h-8.85Z"/><path class="g" d="M1086.53,646.08c3.77,4.36,11,8.14,18.76,8.14,8.73,0,13.45-3.9,13.45-9.44,0-6.26-7-8.26-14.63-10.15-9.68-2.24-20.65-4.84-20.65-16.64,0-8.85,7.67-16.4,21.24-16.4,9.67,0,16.52,3.66,21.12,8.26l-4.13,6.14c-3.42-4.13-9.68-7.2-17-7.2-7.79,0-12.63,3.54-12.63,8.61,0,5.55,6.49,7.32,13.92,9.09,9.92,2.24,21.36,5.07,21.36,17.7,0,9.56-7.67,17.23-22.42,17.23-9.32,0-17.22-2.84-23-9Z"/><path class="g" d="M1143.52,648.08V610.8h-9.44V603h9.44V587.43h8.85V603h11.56v7.79h-11.56v35.39c0,4.25,1.89,7.32,5.78,7.32a8.53,8.53,0,0,0,6-2.36l2.59,6.61c-2.24,2.12-5.42,3.66-10.62,3.66C1147.77,661.42,1143.52,656.58,1143.52,648.08Z"/><path class="g" d="M1208.3,641.47a33.24,33.24,0,0,0,24.78,11.21c14,0,18.52-7.55,18.52-13.57,0-9.44-9.55-12-19.94-14.86C1219,620.94,1205,617.4,1205,602c0-13,11.56-21.83,27-21.83,12,0,21.35,4,28,11l-5.9,7.2c-5.9-6.49-14.16-9.44-22.77-9.44-9.44,0-16.17,5.07-16.17,12.51,0,7.9,9.09,10.26,19.12,13,12.86,3.42,27.49,7.43,27.49,23.95,0,11.44-7.79,23.13-29,23.13-13.68,0-23.71-5.2-30.2-12.51Z"/><path class="g" d="M1300.81,601.59c17.23,0,27.38,13.45,27.38,30.56v2.25h-46.14c.71,10.73,8.26,19.7,20.53,19.7a24.91,24.91,0,0,0,17.58-7.2l4.25,5.78c-5.66,5.67-13.33,8.74-22.66,8.74-16.87,0-29-12.16-29-30C1272.73,614.93,1284.53,601.59,1300.81,601.59Zm-18.76,26.32h37.4c-.11-8.5-5.78-19-18.76-19C1288.54,608.91,1282.52,619.17,1282.05,627.91Z"/><path class="g" d="M1367.6,601.59c10.38,0,16.52,4.25,20.88,9.91l-5.9,5.43a16.89,16.89,0,0,0-14.51-7.43c-12.15,0-19.71,9.32-19.71,21.94s7.56,22.07,19.71,22.07a17.18,17.18,0,0,0,14.51-7.43l5.9,5.42c-4.36,5.67-10.5,9.92-20.88,9.92-17,0-28.44-13-28.44-30S1350.61,601.59,1367.6,601.59Z"/><path class="g" d="M1439.34,652c-4.37,4.95-11.8,9.44-20.3,9.44-11.91,0-18.17-5.79-18.17-18.18V603h8.85v37.52c0,10,5.08,13,12.75,13a21.8,21.8,0,0,0,16.87-8.61V603h8.85v57h-8.85Z"/><path class="g" d="M1465.89,603h8.85v9.2c4.6-6,11.21-10.38,19-10.38v9.08a16,16,0,0,0-3.54-.35c-5.43,0-12.86,4.48-15.46,9.09V660h-8.85Z"/><path class="g" d="M1503.29,587.43a6,6,0,0,1,11.92,0,6,6,0,1,1-11.92,0Zm1.54,15.58h8.85v57h-8.85Z"/><path class="g" d="M1533.15,648.08V610.8h-9.44V603h9.44V587.43H1542V603h11.56v7.79H1542v35.39c0,4.25,1.89,7.32,5.78,7.32a8.53,8.53,0,0,0,6-2.36l2.59,6.61c-2.24,2.12-5.42,3.66-10.62,3.66C1537.4,661.42,1533.15,656.58,1533.15,648.08Z"/><path class="g" d="M1569.14,675.22c3.89,0,6.49-1.3,8.49-6l3.78-8.61L1557.57,603h9.56l19,46.72L1605,603h9.67l-28.55,68.55c-3.42,8.26-9.21,11.45-16.76,11.57a28.81,28.81,0,0,1-6.49-.83l1.42-8A13.57,13.57,0,0,0,1569.14,675.22Z"/><path class="g" d="M1704.24,642.54h-39.88l-7,17.46h-10.86l31.63-78.7h12.15l31.74,78.7h-10.85Zm-37-8.74h34.1l-17-43.77Z"/><path class="g" d="M1773.27,651.5a24,24,0,0,1-19.23,9.92c-14.87,0-25.37-11.33-25.37-29.86,0-18.17,10.38-30,25.37-30a23.83,23.83,0,0,1,19.23,10V581.3h8.85V660h-8.85Zm0-32.8a21.4,21.4,0,0,0-17.11-9.2c-11.44,0-18.29,9.44-18.29,22.06s6.85,22,18.29,22c7.08,0,13.93-4,17.11-9Z"/><path class="g" d="M1791.33,603h9.56l19,46.72L1838.76,603h9.68l-23.72,57H1815Z"/><path class="g" d="M1856.11,587.43a6,6,0,0,1,11.92,0,6,6,0,1,1-11.92,0Zm1.53,15.58h8.85v57h-8.85Z"/><path class="g" d="M1883.84,646.08c3.77,4.36,11,8.14,18.76,8.14,8.73,0,13.45-3.9,13.45-9.44,0-6.26-7-8.26-14.63-10.15-9.68-2.24-20.65-4.84-20.65-16.64,0-8.85,7.67-16.4,21.24-16.4,9.67,0,16.52,3.66,21.12,8.26L1919,616c-3.42-4.13-9.68-7.2-17-7.2-7.79,0-12.63,3.54-12.63,8.61,0,5.55,6.49,7.32,13.93,9.09,9.91,2.24,21.35,5.07,21.35,17.7,0,9.56-7.67,17.23-22.41,17.23-9.33,0-17.23-2.84-23-9Z"/><path class="g" d="M1935.76,631.44c0-16.51,10.85-29.85,28.2-29.85s28.2,13.34,28.2,29.85-10.86,30-28.2,30S1935.76,648,1935.76,631.44Zm47.08,0c0-11.56-6.73-21.94-18.88-21.94s-19,10.38-19,21.94,6.84,22.07,19,22.07S1982.84,643.13,1982.84,631.44Z"/><path class="g" d="M2006.56,603h8.85v9.2c4.6-6,11.21-10.38,19-10.38v9.08a15.93,15.93,0,0,0-3.54-.35c-5.42,0-12.86,4.48-15.45,9.09V660h-8.85Z"/><path class="g" d="M2048.56,675.22c3.9,0,6.49-1.3,8.5-6l3.77-8.61L2037,603h9.56l19,46.72L2084.43,603h9.68l-28.56,68.55c-3.42,8.26-9.2,11.45-16.75,11.57a28.81,28.81,0,0,1-6.49-.83l1.41-8A13.61,13.61,0,0,0,2048.56,675.22Z"/><path class="g" d="M2134.11,581.3H2161c24.43,0,40.36,17.11,40.36,39.41S2185.44,660,2161,660h-26.9Zm26.9,70c19.12,0,30.21-13.69,30.21-30.56S2180.48,590,2161,590H2143.9v61.24Z"/><path class="g" d="M2252,653.51c-4.72,5.19-11.21,7.91-18.88,7.91-9.67,0-19.94-6.49-19.94-18.88,0-12.75,10.27-18.76,19.94-18.76,7.79,0,14.28,2.47,18.88,7.78V621.3c0-7.67-6.14-12-14.4-12-6.84,0-12.38,2.48-17.46,7.91L2216,611c6.14-6.37,13.45-9.44,22.77-9.44,12,0,22.07,5.43,22.07,19.24V660H2252Zm0-16.28c-3.42-4.72-9.44-7.08-15.69-7.08-8.26,0-14,5.19-14,12.5S2228,655,2236.3,655c6.25,0,12.27-2.36,15.69-7.08Z"/><path class="g" d="M2280.31,648.08V610.8h-9.44V603h9.44V587.43h8.85V603h11.56v7.79h-11.56v35.39c0,4.25,1.89,7.32,5.78,7.32a8.53,8.53,0,0,0,6-2.36l2.6,6.61c-2.25,2.12-5.43,3.66-10.62,3.66C2284.56,661.42,2280.31,656.58,2280.31,648.08Z"/><path class="g" d="M2348.87,653.51c-4.72,5.19-11.21,7.91-18.88,7.91-9.68,0-19.94-6.49-19.94-18.88,0-12.75,10.26-18.76,19.94-18.76,7.79,0,14.28,2.47,18.88,7.78V621.3c0-7.67-6.14-12-14.4-12-6.84,0-12.39,2.48-17.46,7.91l-4.13-6.14c6.13-6.37,13.45-9.44,22.77-9.44,12,0,22.07,5.43,22.07,19.24V660h-8.85Zm0-16.28c-3.42-4.72-9.44-7.08-15.7-7.08-8.26,0-14,5.19-14,12.5s5.78,12.39,14,12.39c6.26,0,12.28-2.36,15.7-7.08Z"/><path class="g" d="M2375.42,581.3h8.85v30.32a23.66,23.66,0,0,1,19.23-10c14.87,0,25.37,11.8,25.37,30,0,18.53-10.5,29.86-25.37,29.86a24,24,0,0,1-19.23-9.92V660h-8.85Zm25.84,72.21c11.56,0,18.41-9.32,18.41-22s-6.85-22.06-18.41-22.06c-7,0-13.93,4.25-17,9.2v25.84C2387.33,649.5,2394.3,653.51,2401.26,653.51Z"/><path class="g" d="M2478.9,653.51c-4.72,5.19-11.21,7.91-18.88,7.91-9.67,0-19.94-6.49-19.94-18.88,0-12.75,10.27-18.76,19.94-18.76,7.79,0,14.28,2.47,18.88,7.78V621.3c0-7.67-6.13-12-14.39-12-6.85,0-12.39,2.48-17.47,7.91l-4.13-6.14c6.14-6.37,13.45-9.44,22.78-9.44,12,0,22.06,5.43,22.06,19.24V660h-8.85Zm0-16.28c-3.42-4.72-9.44-7.08-15.69-7.08-8.26,0-14,5.19-14,12.5s5.78,12.39,14,12.39c6.25,0,12.27-2.36,15.69-7.08Z"/><path class="g" d="M2505.1,646.08c3.77,4.36,11,8.14,18.76,8.14,8.73,0,13.45-3.9,13.45-9.44,0-6.26-7-8.26-14.63-10.15C2513,632.39,2502,629.79,2502,618c0-8.85,7.67-16.4,21.24-16.4,9.68,0,16.52,3.66,21.12,8.26l-4.13,6.14c-3.42-4.13-9.67-7.2-17-7.2-7.79,0-12.63,3.54-12.63,8.61,0,5.55,6.49,7.32,13.93,9.09,9.91,2.24,21.35,5.07,21.35,17.7,0,9.56-7.67,17.23-22.41,17.23-9.33,0-17.23-2.84-23-9Z"/><path class="g" d="M2585.1,601.59c17.23,0,27.38,13.45,27.38,30.56v2.25h-46.14c.71,10.73,8.26,19.7,20.53,19.7a24.91,24.91,0,0,0,17.58-7.2l4.25,5.78c-5.66,5.67-13.33,8.74-22.66,8.74-16.87,0-29-12.16-29-30C2557,614.93,2568.82,601.59,2585.1,601.59Zm-18.76,26.32h37.4c-.11-8.5-5.78-19-18.76-19C2572.83,608.91,2566.81,619.17,2566.34,627.91Z"/></g></svg>